<?xml version="1.0" encoding="utf-8"?>
<!-- Uploaded to: SVG Repo, www.svgrepo.com, Generator: SVG Repo Mixer Tools -->
<svg width="800px" height="800px" viewBox="0 -44.72 354.386 354.386" xmlns="http://www.w3.org/2000/svg"><defs><style>.a{fill:#f2635f;}.b{fill:#211916;}.c{fill:#211715;}</style></defs><path class="a" d="M272.729,135.2l.486.153a17.581,17.581,0,0,0-.666,4.914,16.62,16.62,0,0,0,.567,4.428l-3.69.873c-6.714,0-19.908.18-24.822.639l-1.917-.144c.153-2.115.234-4.275.234-6.462,0-1.764-.063-3.519-.189-5.247l1.521-.027C258.428,134.7,269.246,135.139,272.729,135.2Z"/><path class="a" d="M254.81,111.325l-.783.423c-2.385.945-8.892,3.708-14.418,6.183a67.1,67.1,0,0,0-3.537-8.955c7.344-2.8,12.744-4.806,14.841-5.634l.432-.054a14.962,14.962,0,0,0,1.1,4.149A14.708,14.708,0,0,0,254.81,111.325Z"/><path class="a" d="M254.027,168.79l.783.423a14.423,14.423,0,0,0-2.367,3.888,14.962,14.962,0,0,0-1.1,4.149l-.432-.054c-2.052-.81-7.29-2.763-14.418-5.472a71.387,71.387,0,0,0,3.285-9.045C245.27,165.136,251.669,167.845,254.027,168.79Z"/><path class="a" d="M247.655,73.336l-.486.873c-3.321,3.222-15.435,15.57-19.161,20.052l-.855.7-.378-.459a65.734,65.734,0,0,0-7.848-7.9l.432-.5c10.287-9.756,18.243-17.091,20.754-19.512l.459-.252a17.835,17.835,0,0,0,7.083,7Z"/><path class="a" d="M247.277,206.788l.243.45a17.349,17.349,0,0,0-3.951,3.006,16.659,16.659,0,0,0-3.033,4.077l-.891-.477c-3.222-3.321-15.561-15.444-20.043-19.161l-.117-.135a60.14,60.14,0,0,0,8.3-8.487C237.53,196.339,244.856,204.277,247.277,206.788Z"/><path class="a" d="M210.5,216.958l.108,1.089a14.278,14.278,0,0,0-4.185,1.071,14.937,14.937,0,0,0-3.537,2.043l-.432-.216c-.882-2.007-3.2-7.047-6.336-13.941a66.708,66.708,0,0,0,8.982-3.366C207.137,208.867,209.477,214.591,210.5,216.958Z"/><path class="a" d="M210.575,62.509l-.054.441c-.81,2.052-2.781,7.335-5.508,14.517a68.074,68.074,0,0,0-8.91-3.618c2.439-5.436,5.085-11.691,6.012-14.022l.423-.774a14.18,14.18,0,0,0,3.888,2.358A15.043,15.043,0,0,0,210.575,62.509Z"/><path class="a" d="M179.426,65.7l-.36,4.815c-1.935-.162-3.906-.234-5.9-.234q-2.767,0-5.454.189l-.072-1.215c.54-5.8.693-23.1.63-27.729l.306-.963a16.538,16.538,0,0,0,5.013.738,17.9,17.9,0,0,0,2.916-.225,15.07,15.07,0,0,0,2-.45l.144.495C178.715,44.293,179.075,53.464,179.426,65.7Z"/><path class="a" d="M179.12,210l.306,4.824c-.351,12.24-.711,21.411-.774,24.579l-.144.486a15.587,15.587,0,0,0-2.7-.54,19.539,19.539,0,0,0-2.214-.126,16.538,16.538,0,0,0-5.013.738l-.306-.963c.063-4.626-.09-21.924-.63-27.729l.072-1.242c1.791.117,3.618.18,5.463.18C175.2,210.208,177.176,210.145,179.12,210Z"/><path class="a" d="M145.073,59.827c.918,2.3,3.5,8.415,5.913,13.8a66.819,66.819,0,0,0-8.937,3.519c-2.664-7.02-4.581-12.168-5.382-14.193l-.054-.441a15.043,15.043,0,0,0,4.149-1.1,14.765,14.765,0,0,0,3.213-1.818Z"/><path class="a" d="M151.031,207.085c-3.114,6.858-5.418,11.862-6.3,13.86l-.693.009a15.646,15.646,0,0,0-3.276-1.836,14.278,14.278,0,0,0-4.185-1.071l.108-1.089c1.017-2.349,3.33-8.019,5.364-13.221A68.524,68.524,0,0,0,151.031,207.085Z"/><path class="a" d="M127.829,86.1l.09.117a66.011,66.011,0,0,0-8.388,8.4l-.351-.351c-3.726-4.482-15.84-16.83-19.161-20.052l4.158-4.5,2.889-3.123C109.586,69.007,117.533,76.342,127.829,86.1Z"/><path class="a" d="M119.18,186.286a62.279,62.279,0,0,0,8.4,8.406c-4.491,3.726-16.812,15.831-20.034,19.152l-.891.486a16.532,16.532,0,0,0-3.033-4.086,17.389,17.389,0,0,0-3.888-2.97l.423-.738C102.773,203.8,109.847,196.141,119.18,186.286Z"/><path class="a" d="M106.751,162.841a69.181,69.181,0,0,0,3.375,8.964c-5.373,2.1-11.241,4.509-13.437,5.463l-.864.072a14.42,14.42,0,0,0-1.08-4.239,15.089,15.089,0,0,0-2.385-3.96l.558-.009C94.916,168.25,99.911,165.946,106.751,162.841Z"/><path class="a" d="M110.387,108.823a67.7,67.7,0,0,0-3.555,8.9c-6.885-3.123-11.907-5.445-13.914-6.318l-.558-.018a14.8,14.8,0,0,0,2.385-3.96,14.3,14.3,0,0,0,1.08-4.23l.864.072C98.921,104.233,104.942,106.708,110.387,108.823Z"/><path class="a" d="M102.926,134.329l.846-1.665q-.338,3.429-.333,6.939,0,3.321.243,6.525l-1.584.036c-6.228-.5-22.734-.648-27.234-.576l-.972-.306a16.538,16.538,0,0,0,.738-5.013,17.581,17.581,0,0,0-.666-4.914l.486-.153C77.942,135.139,88.751,134.7,102.926,134.329Z"/><path class="a" d="M271.127,99.656c2.643,6.346.2,12.508-4.784,14.586-5.582,2.325-11.293-.556-13.9-6.808-2.7-6.494-.59-12.35,4.957-14.659C262.427,90.683,268.493,93.331,271.127,99.656Z"/><path class="a" d="M173.592,17.862c-7.965,0-13.47,5.351-13.47,11.613,0,7.006,5.624,11.831,13.471,11.831,8.149,0,13.471-4.87,13.471-11.831C187.064,23.171,181.529,17.862,173.592,17.862Z"/><path class="a" d="M173.592,262.67c-7.965,0-13.47-5.351-13.47-11.613,0-7.006,5.624-11.831,13.471-11.831,8.149,0,13.471,4.87,13.471,11.831C187.064,257.361,181.529,262.67,173.592,262.67Z"/><path class="a" d="M214.205,42.734c-6.346-2.643-12.508-.206-14.586,4.784-2.325,5.582.556,11.293,6.808,13.9,6.494,2.7,12.35.59,14.659-4.957C223.178,51.434,220.53,45.367,214.205,42.734Z"/><path class="a" d="M132.98,237.8c-6.347-2.642-8.958-8.733-6.881-13.722,2.325-5.583,8.407-7.561,14.659-4.957,6.494,2.7,9.118,8.349,6.809,13.9C145.475,238.037,139.3,240.431,132.98,237.8Z"/><path class="a" d="M132.983,42.734c6.347-2.643,12.509-.206,14.587,4.784,2.324,5.582-.556,11.293-6.809,13.9-6.493,2.7-12.349.59-14.659-4.957C124.011,51.434,126.659,45.367,132.983,42.734Z"/><path class="a" d="M214.209,237.8c6.347-2.642,8.958-8.733,6.88-13.722-2.324-5.583-8.406-7.561-14.659-4.957-6.493,2.7-9.118,8.349-6.808,13.9C201.714,238.037,207.885,240.431,214.209,237.8Z"/><path class="a" d="M271.127,180.878c2.643-6.347.2-12.509-4.784-14.587-5.582-2.324-11.293.556-13.9,6.809-2.7,6.493-.59,12.349,4.957,14.659C262.427,189.85,268.493,187.2,271.127,180.878Z"/><path class="a" d="M76.063,99.652c2.643-6.347,8.734-8.958,13.723-6.88,5.583,2.324,7.561,8.406,4.957,14.659-2.7,6.493-8.349,9.118-13.9,6.808C75.824,112.147,73.43,105.976,76.063,99.652Z"/><path class="a" d="M76.063,180.881c2.643,6.347,8.734,8.958,13.723,6.881,5.583-2.325,7.561-8.407,4.957-14.659-2.7-6.494-8.349-9.118-13.9-6.809C75.824,168.386,73.43,174.557,76.063,180.881Z"/><path class="a" d="M51.189,140.266c0,7.965,5.351,13.471,11.613,13.471,7.006,0,11.831-5.624,11.831-13.471,0-8.15-4.87-13.471-11.831-13.471C56.5,126.8,51.189,132.329,51.189,140.266Z"/><path class="a" d="M296,140.266c0,7.965-5.351,13.471-11.613,13.471-7.006,0-11.831-5.624-11.831-13.471,0-8.15,4.87-13.471,11.831-13.471C290.688,126.8,296,132.329,296,140.266Z"/><path class="a" d="M87.04,53.714C81.408,59.346,81.3,67.023,85.726,71.45c4.954,4.954,12.343,4.389,17.891-1.159,5.763-5.763,6.082-12.969,1.16-17.892C100.319,47.942,92.652,48.1,87.04,53.714Z"/><path class="a" d="M260.145,226.819c-5.632,5.632-13.309,5.741-17.737,1.313-4.954-4.954-4.389-12.342,1.16-17.891,5.763-5.762,12.969-6.082,17.891-1.159C265.917,213.539,265.757,221.207,260.145,226.819Z"/><path class="a" d="M87.041,226.819c5.632,5.632,13.308,5.741,17.736,1.313,4.954-4.954,4.389-12.342-1.16-17.891-5.762-5.762-12.968-6.082-17.891-1.159C81.269,213.539,81.428,221.207,87.041,226.819Z"/><path class="a" d="M260.146,53.714c5.632,5.632,5.741,13.309,1.313,17.736-4.954,4.954-12.342,4.389-17.891-1.159-5.762-5.763-6.082-12.969-1.16-17.892C246.866,47.942,254.534,48.1,260.146,53.714Z"/><path class="a" d="M173.175,70.289c-41.237,0-69.74,31.938-69.74,69.311,0,41.816,29.116,70.613,69.743,70.613,42.192,0,69.743-29.066,69.743-70.613C242.921,101.973,214.267,70.289,173.175,70.289Z"/><path class="b" d="M166.275,41.533c.061,4.473-.009,8.95-.087,13.421-.083,4.762-.111,9.558-.541,14.3a2.016,2.016,0,0,0,2,2,2.042,2.042,0,0,0,2-2c.43-4.746.458-9.542.541-14.3.078-4.471.148-8.948.087-13.421-.036-2.571-4.036-2.579-4,0Z"/><path class="b" d="M181.534,69.6c-.253-9.492-.7-18.983-.878-28.477-.05-2.571-4.05-2.58-4,0,.182,9.494.625,18.985.878,28.477.069,2.569,4.069,2.579,4,0Z"/><path class="c" d="M151.518,75.553a73.111,73.111,0,0,1,44.054.225c2.454.795,3.506-3.066,1.063-3.857a76.9,76.9,0,0,0-46.18-.225c-2.449.766-1.4,4.629,1.063,3.857Z"/><path class="c" d="M237.681,118.463a76.757,76.757,0,0,1,.171,43.684c-.71,2.48,3.148,3.538,3.857,1.064a80.707,80.707,0,0,0-.171-45.812c-.764-2.449-4.627-1.4-3.857,1.064Z"/><path class="c" d="M150.5,209.014a82.688,82.688,0,0,0,46.153-.081c2.463-.728,1.415-4.589-1.063-3.857a78.72,78.72,0,0,1-44.027.081c-2.475-.728-3.532,3.131-1.063,3.857Z"/><path class="c" d="M104.832,117.724c0-.179-.343.818-.4,1q-.225.763-.434,1.533-.36,1.323-.667,2.66-.643,2.805-1.062,5.656a76.949,76.949,0,0,0-.829,11.988,83,83,0,0,0,3.379,22.815c.735,2.46,4.6,1.412,3.857-1.064a78.887,78.887,0,0,1-3.239-22.228,69.848,69.848,0,0,1,.866-11.591q.444-2.721,1.1-5.4.323-1.329.7-2.647a11.051,11.051,0,0,0,.729-2.715c0-2.574-4-2.578-4,0Z"/><path class="c" d="M108.4,172.815a66.66,66.66,0,0,0,32.641,32.649,2.059,2.059,0,0,0,2.736-.717,2.017,2.017,0,0,0-.717-2.737A63.3,63.3,0,0,1,111.853,170.8a2.016,2.016,0,0,0-2.736-.718,2.047,2.047,0,0,0-.718,2.737Z"/><path class="c" d="M206.113,205.365a65.147,65.147,0,0,0,32.109-32.631,2.062,2.062,0,0,0-.717-2.737,2.017,2.017,0,0,0-2.737.718,61.829,61.829,0,0,1-30.674,31.2,2.017,2.017,0,0,0-.718,2.737,2.047,2.047,0,0,0,2.737.717Z"/><path class="c" d="M204,79.194a66.143,66.143,0,0,1,30.341,30.792c1.114,2.319,4.564.293,3.454-2.019A69.638,69.638,0,0,0,206.023,75.74c-2.3-1.137-4.329,2.312-2.019,3.454Z"/><path class="c" d="M112.114,109.833A66.176,66.176,0,0,1,143.059,78.87c2.319-1.114.293-4.564-2.019-3.454a69.652,69.652,0,0,0-32.38,32.4c-1.115,2.307,2.333,4.338,3.454,2.019Z"/><path class="c" d="M173.592,15.862c-6.293.069-12.461,3.261-14.73,9.385a13.3,13.3,0,0,0,4.983,15.237c5.039,3.567,12.534,3.7,17.964.983a13.37,13.37,0,0,0,7.05-14.2c-1.208-7.27-8.381-11.328-15.267-11.4-2.574-.028-2.576,3.972,0,4,4.5.049,9.405,2.163,10.973,6.714A9.325,9.325,0,0,1,181.1,37.257c-7.05,4.685-20.468,1.105-18.889-9.067.849-5.468,6.291-8.272,11.385-8.328C176.165,19.834,176.171,15.834,173.592,15.862Z"/><path class="b" d="M170.275,239c.061-4.473-.009-8.95-.087-13.421-.083-4.762-.111-9.558-.541-14.3a2.053,2.053,0,0,0-2-2,2.016,2.016,0,0,0-2,2c.43,4.746.458,9.542.541,14.3.078,4.471.148,8.948.087,13.421-.036,2.574,3.964,2.576,4,0Z"/><path class="b" d="M177.534,210.929c-.253,9.492-.7,18.983-.878,28.477-.05,2.575,3.95,2.575,4,0,.182-9.494.625-18.985.878-28.477.069-2.575-3.931-2.574-4,0Z"/><path class="c" d="M173.592,260.67c-4.505-.05-9.408-2.175-10.974-6.731a9.278,9.278,0,0,1,3.749-10.774,14.368,14.368,0,0,1,13.423-.646,9.369,9.369,0,0,1,5.188,9.833c-.851,5.469-6.293,8.262-11.386,8.318-2.572.028-2.579,4.028,0,4,6.288-.069,12.459-3.249,14.729-9.369A13.351,13.351,0,0,0,183.6,240.16c-4.98-3.653-12.446-3.809-17.9-1.2a13.39,13.39,0,0,0-7.371,14.293c1.208,7.269,8.38,11.337,15.266,11.413C176.167,264.7,176.169,260.7,173.592,260.67Z"/><path class="b" d="M200.186,59.3c-1.407,3.515-2.832,6.784-4.377,10.317-1.628,3.723-3.226,7.491-5.12,11.089-1.2,2.276,2.252,4.3,3.453,2.019,1.939-3.681,3.57-7.538,5.234-11.348,1.595-3.653,3.185-7.313,4.667-11.013a2.016,2.016,0,0,0-1.4-2.461,2.049,2.049,0,0,0-2.46,1.4Z"/><path class="b" d="M203.7,86.465c2.948-7.648,5.745-15.357,8.749-22.983a2.015,2.015,0,0,0-1.4-2.46,2.047,2.047,0,0,0-2.46,1.4c-3,7.625-5.8,15.335-8.749,22.982a2.015,2.015,0,0,0,1.4,2.46,2.045,2.045,0,0,0,2.46-1.4Z"/><path class="c" d="M214.737,40.805c-5.027-2.024-11.416-1.419-15.083,2.922a11.77,11.77,0,0,0-.721,14.288,16.111,16.111,0,0,0,14.517,6.463,11.772,11.772,0,0,0,10.215-9.995c.816-5.928-3.164-11.208-8.45-13.476a2.067,2.067,0,0,0-2.737.718,2.015,2.015,0,0,0,.718,2.736c3.316,1.423,6.379,4.228,6.581,7.976a7.8,7.8,0,0,1-5.241,7.749c-7.109,2.231-17.12-5.173-12.623-12.791,2.449-4.148,7.719-4.36,11.761-2.732a2.014,2.014,0,0,0,2.46-1.4A2.05,2.05,0,0,0,214.737,40.805Z"/><path class="b" d="M138.323,218.181c1.583-3.658,3.064-7.361,4.533-11.066,1.532-3.866,3.121-7.741,4.368-11.711.774-2.461-3.087-3.515-3.857-1.063-1.219,3.878-2.767,7.665-4.262,11.442q-1.255,3.174-2.549,6.334-.506,1.233-1.017,2.465l-.219.524c-.058.139-.208.493-.065.154q-.191.452-.385.9a2.066,2.066,0,0,0,.717,2.737,2.014,2.014,0,0,0,2.736-.718Z"/><path class="b" d="M153.154,197.532c-3.351,7.48-6.852,14.9-10.148,22.4a2.064,2.064,0,0,0,.717,2.736,2.015,2.015,0,0,0,2.737-.718c3.3-7.5,6.8-14.92,10.148-22.4a2.062,2.062,0,0,0-.717-2.737,2.017,2.017,0,0,0-2.737.718Z"/><path class="c" d="M133.989,236.071c-3.323-1.427-6.379-4.24-6.578-7.992a7.721,7.721,0,0,1,5.476-7.748c3.839-1.11,8.417.494,11.168,3.285a7.782,7.782,0,0,1,1.214,9.527c-2.449,4.15-7.717,4.353-11.758,2.726a2.013,2.013,0,0,0-2.46,1.4,2.049,2.049,0,0,0,1.4,2.46c5.023,2.023,11.41,1.428,15.077-2.91a11.82,11.82,0,0,0,.921-14.11,16.067,16.067,0,0,0-14.425-6.64,11.785,11.785,0,0,0-10.5,9.971c-.817,5.929,3.157,11.217,8.446,13.487a2.066,2.066,0,0,0,2.736-.717A2.013,2.013,0,0,0,133.989,236.071Z"/><path class="b" d="M143.146,60.363c1.481,3.7,3.072,7.36,4.667,11.013,1.663,3.81,3.3,7.667,5.233,11.348,1.2,2.278,4.654.259,3.454-2.019-1.9-3.6-3.492-7.365-5.12-11.089-1.545-3.532-2.971-6.8-4.377-10.317a2.062,2.062,0,0,0-2.46-1.4,2.014,2.014,0,0,0-1.4,2.461Z"/><path class="b" d="M147.345,85.4C144.4,77.754,141.6,70.044,138.6,62.419a2.061,2.061,0,0,0-2.46-1.4,2.014,2.014,0,0,0-1.4,2.46c3,7.626,5.8,15.335,8.749,22.983a2.057,2.057,0,0,0,2.46,1.4,2.014,2.014,0,0,0,1.4-2.46Z"/><path class="c" d="M133.515,44.663c3.684-1.484,8.192-1.506,11.009,1.684A7.751,7.751,0,0,1,144.8,56a12.142,12.142,0,0,1-10.783,4.517,7.852,7.852,0,0,1-6.576-6.676c-.526-4.336,2.77-7.754,6.55-9.376a2.011,2.011,0,0,0,.717-2.736,2.051,2.051,0,0,0-2.736-.718c-4.712,2.022-8.433,6.408-8.573,11.684a11.843,11.843,0,0,0,8.188,11.352c5.206,1.634,11.523-.481,15.254-4.309a11.911,11.911,0,0,0,1.886-14.358c-3.318-5.62-10.54-6.881-16.277-4.571a2.063,2.063,0,0,0-1.4,2.461A2.014,2.014,0,0,0,133.515,44.663Z"/><path class="b" d="M212.319,216.162q-.179-.414-.355-.829c-.036-.086.1.236-.06-.144q-.127-.3-.254-.607-.513-1.231-1.018-2.465-1.292-3.159-2.549-6.334c-1.5-3.777-3.043-7.564-4.261-11.442-.769-2.448-4.632-1.4-3.858,1.063,1.248,3.97,2.836,7.845,4.369,11.711,1.468,3.7,2.95,7.408,4.532,11.066a2.013,2.013,0,0,0,2.737.718,2.052,2.052,0,0,0,.717-2.737Z"/><path class="b" d="M190.58,199.551c3.352,7.479,6.853,14.9,10.149,22.4a2.012,2.012,0,0,0,2.736.718,2.051,2.051,0,0,0,.718-2.736c-3.3-7.5-6.8-14.92-10.149-22.4a2.014,2.014,0,0,0-2.736-.718,2.05,2.05,0,0,0-.718,2.737Z"/><path class="c" d="M215.219,239.524c4.716-2.024,8.433-6.419,8.568-11.7a11.757,11.757,0,0,0-8.422-11.351c-5.257-1.519-11.563.587-15.258,4.52a11.862,11.862,0,0,0-1.641,14.168c3.318,5.622,10.537,6.875,16.275,4.564a2.064,2.064,0,0,0,1.4-2.46,2.014,2.014,0,0,0-2.461-1.4c-3.679,1.481-8.185,1.514-11-1.672a7.767,7.767,0,0,1-.479-9.472,12.112,12.112,0,0,1,10.684-4.69,7.827,7.827,0,0,1,6.865,6.647c.527,4.338-2.76,7.764-6.545,9.389a2.012,2.012,0,0,0-.718,2.736A2.053,2.053,0,0,0,215.219,239.524Z"/><path class="b" d="M254.562,166.858c-3.515-1.407-6.784-2.832-10.317-4.377-3.724-1.628-7.491-3.225-11.089-5.12-2.276-1.2-4.3,2.253-2.019,3.454,3.681,1.938,7.538,3.57,11.348,5.233,3.653,1.595,7.313,3.186,11.013,4.667a2.013,2.013,0,0,0,2.46-1.4,2.047,2.047,0,0,0-1.4-2.46Z"/><path class="b" d="M227.4,170.373c7.648,2.948,15.357,5.745,22.983,8.749a2.014,2.014,0,0,0,2.46-1.4,2.047,2.047,0,0,0-1.4-2.46c-7.625-3-15.335-5.8-22.982-8.749a2.016,2.016,0,0,0-2.461,1.4,2.046,2.046,0,0,0,1.4,2.46Z"/><path class="c" d="M273.056,181.409c2.024-5.027,1.419-11.416-2.922-15.082a11.77,11.77,0,0,0-14.288-.722,16.112,16.112,0,0,0-6.463,14.517,11.772,11.772,0,0,0,9.995,10.215c5.927.816,11.208-3.164,13.476-8.45a2.067,2.067,0,0,0-.718-2.736,2.014,2.014,0,0,0-2.736.717c-1.423,3.316-4.229,6.379-7.976,6.581a7.8,7.8,0,0,1-7.749-5.241c-2.231-7.109,5.173-17.12,12.791-12.622,4.148,2.449,4.36,7.718,2.732,11.76a2.014,2.014,0,0,0,1.4,2.46A2.05,2.05,0,0,0,273.056,181.409Z"/><path class="b" d="M95.68,105c3.658,1.582,7.361,3.064,11.066,4.532,3.866,1.533,7.741,3.121,11.711,4.368,2.461.774,3.515-3.086,1.063-3.857-3.878-1.218-7.665-2.766-11.443-4.262q-3.172-1.255-6.333-2.549-1.233-.5-2.465-1.017l-.524-.219-.154-.065q-.453-.191-.9-.385a2.067,2.067,0,0,0-2.737.717A2.015,2.015,0,0,0,95.68,105Z"/><path class="b" d="M116.329,119.827c-7.48-3.352-14.9-6.853-22.4-10.149a2.064,2.064,0,0,0-2.736.718,2.014,2.014,0,0,0,.717,2.736c7.505,3.3,14.92,6.8,22.4,10.149a2.062,2.062,0,0,0,2.736-.718,2.014,2.014,0,0,0-.717-2.736Z"/><path class="c" d="M77.79,100.661c1.427-3.323,4.24-6.379,7.992-6.577a7.722,7.722,0,0,1,7.748,5.475c1.11,3.84-.494,8.417-3.285,11.168a7.781,7.781,0,0,1-9.527,1.214c-4.15-2.449-4.353-7.716-2.726-11.757a2.014,2.014,0,0,0-1.4-2.461,2.049,2.049,0,0,0-2.46,1.4c-2.023,5.023-1.428,11.41,2.91,15.077a11.821,11.821,0,0,0,14.11.922,16.069,16.069,0,0,0,6.64-14.425,11.787,11.787,0,0,0-9.972-10.5c-5.928-.816-11.216,3.157-13.486,8.446a2.067,2.067,0,0,0,.717,2.737A2.014,2.014,0,0,0,77.79,100.661Z"/><path class="b" d="M253.5,109.818c-3.7,1.482-7.36,3.072-11.013,4.667-3.81,1.664-7.667,3.3-11.348,5.234-2.278,1.2-.259,4.653,2.019,3.453,3.6-1.894,7.365-3.492,11.089-5.12,3.532-1.545,6.805-2.971,10.317-4.377a2.061,2.061,0,0,0,1.4-2.46,2.013,2.013,0,0,0-2.46-1.4Z"/><path class="b" d="M228.46,114.017c7.647-2.947,15.357-5.745,22.982-8.749a2.06,2.06,0,0,0,1.4-2.46,2.014,2.014,0,0,0-2.46-1.4c-7.626,3-15.335,5.8-22.983,8.749a2.059,2.059,0,0,0-1.4,2.46,2.015,2.015,0,0,0,2.461,1.4Z"/><path class="c" d="M269.2,100.187c1.484,3.684,1.506,8.192-1.684,11.01a7.752,7.752,0,0,1-9.649.277,12.144,12.144,0,0,1-4.518-10.783,7.852,7.852,0,0,1,6.677-6.575c4.336-.526,7.754,2.769,9.376,6.549a2.012,2.012,0,0,0,2.736.718,2.053,2.053,0,0,0,.718-2.737c-2.022-4.712-6.408-8.433-11.684-8.572a11.84,11.84,0,0,0-11.352,8.188c-1.634,5.206.481,11.522,4.309,15.253a11.913,11.913,0,0,0,14.358,1.887c5.62-3.318,6.881-10.54,4.571-16.278a2.065,2.065,0,0,0-2.461-1.4A2.014,2.014,0,0,0,269.2,100.187Z"/><path class="b" d="M97.7,178.991q.414-.179.829-.354c.086-.037-.236.1.144-.061l.607-.254q1.231-.513,2.465-1.017,3.159-1.293,6.333-2.549c3.778-1.5,7.565-3.043,11.443-4.262,2.448-.769,1.4-4.632-1.063-3.857-3.97,1.247-7.845,2.836-11.711,4.368-3.7,1.469-7.408,2.95-11.066,4.533a2.013,2.013,0,0,0-.718,2.736,2.052,2.052,0,0,0,2.737.717Z"/><path class="b" d="M114.31,157.253c-7.48,3.351-14.895,6.852-22.4,10.148a2.014,2.014,0,0,0-.717,2.737,2.05,2.05,0,0,0,2.736.717c7.5-3.3,14.92-6.8,22.4-10.148a2.014,2.014,0,0,0,.717-2.737,2.047,2.047,0,0,0-2.736-.717Z"/><path class="c" d="M74.337,181.891c2.024,4.717,6.419,8.433,11.7,8.569a11.759,11.759,0,0,0,11.351-8.423c1.519-5.256-.587-11.562-4.52-15.258A11.862,11.862,0,0,0,78.7,165.138c-5.622,3.319-6.875,10.538-4.564,16.275a2.063,2.063,0,0,0,2.46,1.4,2.013,2.013,0,0,0,1.4-2.46c-1.481-3.679-1.514-8.186,1.672-11a7.768,7.768,0,0,1,9.472-.478,12.111,12.111,0,0,1,4.69,10.683,7.826,7.826,0,0,1-6.648,6.865c-4.337.527-7.763-2.76-9.388-6.545a2.012,2.012,0,0,0-2.736-.718A2.053,2.053,0,0,0,74.337,181.891Z"/><path class="b" d="M74.86,147.584c4.473-.062,8.949.009,13.421.086,4.762.083,9.558.112,14.3.541a2.015,2.015,0,0,0,2-2,2.043,2.043,0,0,0-2-2c-4.746-.429-9.542-.458-14.3-.541-4.472-.077-8.948-.148-13.421-.086-2.572.035-2.579,4.036,0,4Z"/><path class="b" d="M102.93,132.325c-9.492.253-18.984.7-28.477.878-2.571.049-2.58,4.049,0,4,9.493-.183,18.985-.625,28.477-.878,2.569-.069,2.579-4.069,0-4Z"/><path class="c" d="M49.189,140.266c.069,6.294,3.261,12.462,9.385,14.731a13.3,13.3,0,0,0,15.237-4.984c3.567-5.038,3.7-12.533.983-17.963a13.37,13.37,0,0,0-14.2-7.05c-7.27,1.208-11.329,8.381-11.4,15.266-.028,2.575,3.972,2.577,4,0,.049-4.5,2.163-9.4,6.714-10.972a9.324,9.324,0,0,1,10.681,3.468c4.685,7.051,1.1,20.469-9.068,18.889-5.467-.849-8.271-6.291-8.327-11.385C53.161,137.694,49.16,137.687,49.189,140.266Z"/><path class="b" d="M272.325,143.584c-4.472-.062-8.949.009-13.42.086-4.762.083-9.558.112-14.3.541a2.054,2.054,0,0,0-2,2,2.014,2.014,0,0,0,2,2c4.746-.429,9.542-.458,14.3-.541,4.471-.077,8.948-.148,13.42-.086,2.575.036,2.576-3.964,0-4Z"/><path class="b" d="M244.256,136.325c9.492.253,18.983.7,28.477.878,2.575.049,2.575-3.951,0-4-9.494-.183-18.985-.625-28.477-.878-2.575-.069-2.574,3.931,0,4Z"/><path class="c" d="M294,140.266c-.05,4.506-2.175,9.409-6.731,10.975a9.279,9.279,0,0,1-10.775-3.75,14.369,14.369,0,0,1-.645-13.422,9.367,9.367,0,0,1,9.833-5.188c5.469.85,8.262,6.293,8.318,11.385.028,2.573,4.028,2.579,4,0-.069-6.287-3.249-12.458-9.369-14.728a13.351,13.351,0,0,0-15.141,4.721c-3.654,4.98-3.809,12.446-1.2,17.9a13.388,13.388,0,0,0,14.292,7.37c7.269-1.207,11.338-8.379,11.414-15.266C298.025,137.692,294.025,137.69,294,140.266Z"/><path class="b" d="M129.242,84.685c-6.891-6.534-13.915-12.932-20.758-19.516a2.025,2.025,0,0,0-2.828,0L98.6,72.8a2.033,2.033,0,0,0,0,2.828c3.206,3.119,6.322,6.334,9.429,9.551,3.308,3.426,6.679,6.838,9.732,10.5,1.65,1.979,4.467-.864,2.828-2.828-3.053-3.66-6.424-7.072-9.732-10.5-3.107-3.217-6.223-6.433-9.429-9.551v2.828L108.484,68h-2.828c6.842,6.584,13.866,12.983,20.758,19.516,1.867,1.771,4.7-1.053,2.828-2.828Z"/><path class="c" d="M85.626,52.3C81.41,56.591,79.189,63,81.6,68.771a13.287,13.287,0,0,0,14.292,7.868c6.2-.945,11.757-6.227,13.668-12.095a13.386,13.386,0,0,0-5.61-15.341c-6-3.782-13.551-1.592-18.323,3.1-1.84,1.807.989,4.635,2.828,2.829,3.208-3.151,7.862-4.916,12.1-3.2a9.427,9.427,0,0,1,5.592,9.734c-.681,4.71-4.77,9.159-9.237,10.626a9.359,9.359,0,0,1-10.982-3.779c-2.69-4.37-1-9.8,2.527-13.381C90.259,53.29,87.433,50.459,85.626,52.3Z"/><path class="b" d="M241.061,212.427c-5.2-5.348-10.589-10.541-16.062-15.607-1.306-1.209-2.619-2.415-3.986-3.554a2.054,2.054,0,0,0-2.828,0,2.015,2.015,0,0,0,0,2.828c5.877,4.9,11.288,10.435,16.718,15.817,1.117,1.107,2.233,2.216,3.33,3.344,1.8,1.849,4.625-.981,2.828-2.828Z"/><path class="b" d="M226.346,187.445c6.533,6.891,12.931,13.916,19.515,20.758,1.789,1.858,4.615-.973,2.829-2.829-6.585-6.841-12.983-13.866-19.516-20.757-1.775-1.872-4.6.96-2.828,2.828Z"/><path class="c" d="M258.731,225.405c-3.212,3.155-7.874,4.911-12.115,3.189a9.343,9.343,0,0,1-5.5-9.824,14.243,14.243,0,0,1,9.261-10.614,9.341,9.341,0,0,1,10.888,3.877c2.69,4.371.982,9.79-2.536,13.372-1.806,1.838,1.021,4.668,2.828,2.828,4.211-4.286,6.444-10.686,4.038-16.457a13.351,13.351,0,0,0-14.2-7.96c-6.2.923-11.754,6.212-13.678,12.07a13.392,13.392,0,0,0,5.514,15.435c6,3.783,13.557,1.6,18.331-3.088C263.4,226.426,260.57,223.6,258.731,225.405Z"/><path class="b" d="M108.953,215.255c5.2-5.347,10.589-10.54,16.062-15.607,1.306-1.208,2.619-2.414,3.986-3.554a2.015,2.015,0,0,0,0-2.828,2.043,2.043,0,0,0-2.828,0c-5.878,4.9-11.289,10.435-16.719,15.817-1.117,1.107-2.233,2.216-3.329,3.344-1.8,1.846,1.029,4.678,2.828,2.828Z"/><path class="b" d="M118.011,184.617c-6.533,6.891-12.93,13.916-19.515,20.757-1.786,1.856,1.039,4.688,2.828,2.829,6.585-6.842,12.983-13.867,19.516-20.758,1.771-1.868-1.053-4.7-2.829-2.828Z"/><path class="c" d="M85.626,228.233c4.292,4.216,10.7,6.437,16.472,4.027a13.287,13.287,0,0,0,7.868-14.292c-.945-6.2-6.227-11.757-12.1-13.669a13.386,13.386,0,0,0-15.34,5.611c-3.782,6-1.592,13.551,3.1,18.323,1.807,1.84,4.635-.99,2.829-2.828-3.151-3.208-4.916-7.862-3.2-12.1a9.425,9.425,0,0,1,9.734-5.592c4.71.681,9.159,4.77,10.626,9.236a9.36,9.36,0,0,1-3.779,10.983c-4.37,2.69-9.8,1-13.381-2.527C86.617,223.6,83.786,226.426,85.626,228.233Z"/><path class="b" d="M245.754,72.8c-5.348,5.2-10.541,10.588-15.607,16.062-1.209,1.306-2.415,2.618-3.554,3.986a2.054,2.054,0,0,0,0,2.828,2.015,2.015,0,0,0,2.828,0c4.9-5.878,10.435-11.288,15.817-16.718,1.107-1.117,2.216-2.233,3.344-3.33,1.849-1.8-.981-4.625-2.828-2.828Z"/><path class="b" d="M220.772,87.513C227.663,80.98,234.688,74.582,241.53,68c1.858-1.788-.973-4.615-2.829-2.828-6.841,6.585-13.866,12.982-20.757,19.516-1.872,1.774.96,4.6,2.828,2.828Z"/><path class="c" d="M258.732,55.128c3.155,3.212,4.911,7.874,3.189,12.114a9.342,9.342,0,0,1-9.824,5.5,14.241,14.241,0,0,1-10.614-9.261,9.341,9.341,0,0,1,3.877-10.888c4.371-2.69,9.79-.982,13.372,2.536,1.838,1.8,4.668-1.021,2.828-2.829-4.286-4.21-10.686-6.443-16.457-4.037a13.35,13.35,0,0,0-7.96,14.2c.923,6.2,6.211,11.754,12.07,13.678a13.392,13.392,0,0,0,15.435-5.514c3.783-6,1.6-13.557-3.088-18.332C259.753,50.46,256.925,53.289,258.732,55.128Z"/><path class="c" d="M147.394,124.177c4.952,1.268,10.019,2.567,13.041,3.347a1.086,1.086,0,0,1,.677,1.585c-2.184,3.8-9.762,7.292-16.524,5.471-6.8-1.688-11.579-6.1-11.582-12.746a1.089,1.089,0,0,1,1.36-1.058C137.387,121.561,142.448,122.883,147.394,124.177Z"/><path class="c" d="M198.962,124.177c-4.952,1.268-10.019,2.567-13.041,3.347a1.085,1.085,0,0,0-.677,1.585c2.184,3.8,9.762,7.292,16.524,5.471,6.8-1.688,11.579-6.1,11.582-12.746a1.09,1.09,0,0,0-1.361-1.058C208.968,121.561,203.907,122.883,198.962,124.177Z"/><path class="a" d="M33.217,14.633A18.27,18.27,0,0,0,14.585,33.151c0,11.171,7.779,18.865,18.632,18.865,11.273,0,18.633-7.766,18.633-18.865A18.254,18.254,0,0,0,33.217,14.633Z"/><path class="a" d="M31.1,5.96c0,2.891.118,5.781.12,8.673a2,2,0,0,0,4,0c0-2.892-.118-5.782-.12-8.673a2,2,0,0,0-4,0Z"/><path class="a" d="M31.1,50.56c0,2.891.118,5.781.12,8.673a2,2,0,0,0,4,0c0-2.892-.118-5.782-.12-8.673a2,2,0,0,0-4,0Z"/><path class="a" d="M51.035,12.805c-2.043,2.046-4,4.172-6.048,6.217a2,2,0,1,0,2.828,2.829c2.044-2.046,4.005-4.172,6.049-6.218a2,2,0,1,0-2.829-2.828Z"/><path class="a" d="M19.548,44.392c-2.043,2.045-4,4.172-6.048,6.217a2,2,0,0,0,2.828,2.829c2.044-2.046,4-4.172,6.049-6.218a2,2,0,1,0-2.829-2.828Z"/><path class="a" d="M59.793,31.336c-2.891,0-5.781.118-8.673.12a2,2,0,1,0,0,4c2.892,0,5.782-.117,8.673-.12a2,2,0,0,0,0-4Z"/><path class="a" d="M15.193,31.536c-2.891,0-5.781.118-8.673.12a2,2,0,0,0,0,4c2.892,0,5.782-.117,8.673-.12a2,2,0,1,0,0-4Z"/><path class="a" d="M53.448,49.975c-2.045-2.044-4.172-4.005-6.217-6.049A2,2,0,0,0,44.4,46.755c2.046,2.043,4.172,4,6.218,6.048a2,2,0,0,0,2.828-2.828Z"/><path class="a" d="M21.911,18.738c-2.045-2.044-4.172-4-6.217-6.049a2,2,0,0,0-2.829,2.829c2.046,2.044,4.172,4,6.218,6.048a2,2,0,1,0,2.828-2.828Z"/><path class="a" d="M33.328,0C30.775,0,29.01,1.716,29.01,3.723c0,2.246,1.8,3.793,4.318,3.793,2.613,0,4.319-1.561,4.319-3.793C37.647,1.7,35.873,0,33.328,0Z"/><path class="a" d="M33.328,66.657c-2.553,0-4.318-1.716-4.318-3.723,0-2.247,1.8-3.793,4.318-3.793,2.613,0,4.319,1.561,4.319,3.793C37.647,64.955,35.873,66.657,33.328,66.657Z"/><path class="a" d="M66.657,33.328c0-2.553-1.716-4.318-3.723-4.318-2.247,0-3.793,1.8-3.793,4.318,0,2.613,1.561,4.319,3.793,4.319C64.955,37.647,66.657,35.873,66.657,33.328Z"/><path class="a" d="M0,33.328c0-2.553,1.716-4.318,3.723-4.318,2.246,0,3.793,1.8,3.793,4.318,0,2.613-1.561,4.319-3.793,4.319C1.7,37.647,0,35.873,0,33.328Z"/><path class="a" d="M56.9,56.9c1.806-1.806,1.841-4.267.421-5.686-1.588-1.589-3.957-1.408-5.736.371-1.847,1.848-1.95,4.158-.371,5.736C52.638,58.745,55.1,58.694,56.9,56.9Z"/><path class="a" d="M9.762,9.762c1.8-1.806,4.267-1.841,5.686-.422,1.588,1.589,1.407,3.957-.372,5.736-1.847,1.848-4.158,1.95-5.736.372C7.911,14.019,7.962,11.561,9.762,9.762Z"/><path class="a" d="M56.9,9.762c-1.806-1.806-4.267-1.841-5.686-.422-1.589,1.589-1.408,3.957.371,5.736,1.848,1.848,4.158,1.95,5.736.372C58.745,14.019,58.694,11.561,56.9,9.762Z"/><path class="a" d="M9.762,56.9c-1.806-1.806-1.841-4.267-.422-5.686,1.589-1.589,3.957-1.408,5.736.371,1.848,1.848,1.95,4.158.372,5.736C14.019,58.745,11.561,58.694,9.762,56.9Z"/><path class="a" d="M320.946,212.923a18.269,18.269,0,0,0-18.632,18.517c0,11.172,7.779,18.865,18.632,18.865,11.273,0,18.633-7.765,18.633-18.865A18.254,18.254,0,0,0,320.946,212.923Z"/><path class="a" d="M318.826,204.249c0,2.892.118,5.782.12,8.674a2,2,0,0,0,4,0c0-2.892-.118-5.782-.12-8.674a2,2,0,0,0-4,0Z"/><path class="a" d="M318.826,248.849c0,2.892.118,5.782.12,8.674a2,2,0,0,0,4,0c0-2.892-.118-5.782-.12-8.674a2,2,0,1,0-4,0Z"/><path class="a" d="M338.764,211.1c-2.043,2.045-4,4.172-6.048,6.217a2,2,0,0,0,2.828,2.829c2.044-2.046,4-4.172,6.049-6.218a2,2,0,0,0-2.829-2.828Z"/><path class="a" d="M307.277,242.682c-2.043,2.045-4,4.172-6.048,6.217a2,2,0,0,0,2.829,2.829c2.043-2.046,4-4.172,6.048-6.218a2,2,0,1,0-2.829-2.828Z"/><path class="a" d="M347.522,229.626c-2.891,0-5.781.118-8.673.12a2,2,0,0,0,0,4c2.892,0,5.782-.117,8.673-.12a2,2,0,0,0,0-4Z"/><path class="a" d="M302.922,229.826c-2.891,0-5.781.118-8.673.12a2,2,0,0,0,0,4c2.892,0,5.782-.117,8.673-.12a2,2,0,0,0,0-4Z"/><path class="a" d="M341.177,248.264c-2.045-2.043-4.172-4-6.217-6.048a2,2,0,1,0-2.829,2.829c2.046,2.043,4.172,4.005,6.218,6.048a2,2,0,1,0,2.828-2.829Z"/><path class="a" d="M309.64,217.027c-2.045-2.043-4.172-4-6.217-6.048a2,2,0,0,0-2.829,2.829c2.046,2.043,4.172,4,6.218,6.048a2,2,0,0,0,2.828-2.829Z"/><path class="a" d="M321.057,198.29c-2.553,0-4.318,1.715-4.318,3.723,0,2.246,1.8,3.793,4.318,3.793,2.613,0,4.319-1.561,4.319-3.793C325.376,199.992,323.6,198.29,321.057,198.29Z"/><path class="a" d="M321.057,264.946c-2.553,0-4.318-1.715-4.318-3.723,0-2.246,1.8-3.793,4.318-3.793,2.613,0,4.319,1.562,4.319,3.793C325.376,263.244,323.6,264.946,321.057,264.946Z"/><path class="a" d="M354.386,231.618c0-2.554-1.716-4.319-3.723-4.319-2.247,0-3.793,1.8-3.793,4.319,0,2.613,1.561,4.319,3.793,4.319C352.684,235.937,354.386,234.162,354.386,231.618Z"/><path class="a" d="M287.729,231.618c0-2.554,1.716-4.319,3.723-4.319,2.246,0,3.793,1.8,3.793,4.319,0,2.613-1.561,4.319-3.793,4.319C289.431,235.937,287.729,234.162,287.729,231.618Z"/><path class="a" d="M344.624,255.185c1.806-1.806,1.841-4.267.421-5.687-1.588-1.588-3.957-1.407-5.736.372-1.847,1.848-1.949,4.158-.371,5.736C340.367,257.035,342.825,256.984,344.624,255.185Z"/><path class="a" d="M297.491,208.051c1.805-1.8,4.267-1.84,5.686-.421,1.588,1.588,1.407,3.957-.372,5.736-1.847,1.847-4.157,1.95-5.736.372C295.64,212.309,295.691,209.851,297.491,208.051Z"/><path class="a" d="M344.624,208.051c-1.806-1.8-4.267-1.84-5.686-.421-1.589,1.588-1.408,3.957.371,5.736,1.848,1.847,4.158,1.95,5.736.372C346.474,212.309,346.423,209.851,344.624,208.051Z"/><path class="a" d="M297.491,255.185c-1.806-1.806-1.841-4.267-.422-5.687,1.589-1.588,3.957-1.407,5.736.372,1.848,1.848,1.95,4.158.372,5.736C301.748,257.035,299.29,256.984,297.491,255.185Z"/></svg>