<!DOCTYPE svg PUBLIC "-//W3C//DTD SVG 1.1//EN" "http://www.w3.org/Graphics/SVG/1.1/DTD/svg11.dtd">
<!-- Uploaded to: SVG Repo, www.svgrepo.com, Transformed by: SVG Repo Mixer Tools -->
<svg width="800px" height="800px" viewBox="0 -0.5 83 83" fill="none" xmlns="http://www.w3.org/2000/svg">
<g id="SVGRepo_bgCarrier" stroke-width="0"/>
<g id="SVGRepo_tracerCarrier" stroke-linecap="round" stroke-linejoin="round"/>
<g id="SVGRepo_iconCarrier">
<path clip-rule="evenodd" d="M31.3136 1.37946C9.59049 7.00487 -3.45869 29.1746 2.16672 50.8978C7.79213 72.6209 29.9629 85.6701 51.685 80.0447C73.4082 74.4193 86.4573 52.2485 80.8329 30.5264C75.2065 8.80323 53.0368 -4.24696 31.3136 1.37946V1.37946Z" fill="url(#paint0_radial)" fill-rule="evenodd"/>
<path clip-rule="evenodd" d="M23.0287 20.1118C20.138 22.8114 17.5894 28.0465 17.9706 31.7408C18.5962 37.8178 29.2747 37.4286 28.9478 30.3679C28.7768 26.6827 26.1004 22.1465 23.0287 20.1118V20.1118Z" fill="url(#paint1_linear)" fill-rule="evenodd"/>
<path d="M57.4175 54.0231C56.7134 53.7908 56.3302 53.0324 56.5616 52.3284C56.7939 51.6243 57.5533 51.2411 58.2573 51.4724L66.6044 54.2364C67.3085 54.4677 67.6917 55.2271 67.4593 55.9311C67.228 56.6352 66.4686 57.0184 65.7646 56.786L57.4175 54.0231Z" fill="#2B2A29"/>
<path d="M32.4206 55.4511C31.6894 55.5637 31.0064 55.0639 30.8928 54.3337C30.7801 53.6024 31.281 52.9195 32.0112 52.8059L42.5791 51.1513C43.3093 51.0377 43.9933 51.5386 44.1059 52.2688C44.2185 52.999 43.7187 53.6829 42.9885 53.7956L32.4206 55.4511V55.4511Z" fill="#2B2A29"/>
<path d="M44.4087 65.9055C43.6906 66.0856 42.9614 65.6481 42.7823 64.9299C42.6033 64.2108 43.0398 63.4826 43.759 63.3026C45.7595 62.7956 48.106 62.5522 50.4374 62.7393C52.4943 62.9043 54.5511 63.4052 56.3716 64.3526C57.0294 64.6946 57.2859 65.5052 56.9439 66.162C56.602 66.8198 55.7913 67.0763 55.1335 66.7343C53.652 65.9629 51.9481 65.5535 50.2272 65.4157C48.1955 65.2518 46.1517 65.465 44.4087 65.9055V65.9055Z" fill="#2B2A29"/>
<defs>
<radialGradient cx="0" cy="0" gradientTransform="translate(53.6611 30.9942) rotate(165.481) scale(128.794 128.793)" gradientUnits="userSpaceOnUse" id="paint0_radial" r="1">
<stop stop-color="#FFE28E"/>
<stop offset="1" stop-color="#F9B86C"/>
</radialGradient>
<linearGradient gradientUnits="userSpaceOnUse" id="paint1_linear" x1="22.8547" x2="25.4939" y1="22.3376" y2="34.9624">
<stop stop-color="#33BEFF"/>
<stop offset="1" stop-color="#298FE3"/>
</linearGradient>
</defs>
</g>
</svg>