<svg width="1278" height="401" viewBox="0 0 1278 401" fill="none" xmlns="http://www.w3.org/2000/svg">
    <defs>
        <style xmlns="http://www.w3.org/2000/svg" type="text/css">
          @import url('https://fonts.googleapis.com/css2?family=Roboto+Condensed:ital,wght@0,100;0,200;0,300;0,400;0,500;0,600;0,700;0,800;0,900;1,100;1,200;1,300;1,400;1,500;1,600;1,700;1,800;1,900');
          @import url('https://fonts.googleapis.com/css2?family=Roboto:ital,wght@0,100;0,300;0,400;0,500;0,700;0,900;1,100;1,300;1,400;1,500;1,700;1,900');
        </style>
    </defs>
<g id="Graphic">
<g id="grid">
<path id="Vector" d="M624.45 299.61V0" stroke="#EEEEEE" stroke-width="2.4"/>
<path id="Vector_2" d="M695.465 299.61V0" stroke="#EEEEEE" stroke-width="2.4"/>
<path id="Vector_3" d="M766.48 299.61V0" stroke="#EEEEEE" stroke-width="2.4"/>
<path id="Vector_4" d="M837.495 299.61V0" stroke="#EEEEEE" stroke-width="2.4"/>
<path id="Vector_5" d="M908.51 299.61V0" stroke="#EEEEEE" stroke-width="2.4"/>
<path id="Vector_6" d="M979.524 299.61V0" stroke="#EEEEEE" stroke-width="2.4"/>
<path id="Vector_7" d="M1050.54 299.61V0" stroke="#EEEEEE" stroke-width="2.4"/>
<path id="Vector_8" d="M1121.55 299.61V0" stroke="#EEEEEE" stroke-width="2.4"/>
<path id="Vector_9" d="M1192.57 299.61V0" stroke="#EEEEEE" stroke-width="2.4"/>
<path id="Vector_10" d="M1263.58 299.61V0" stroke="#EEEEEE" stroke-width="2.4"/>
<path id="Vector_11" d="M553.435 299.61V0" stroke="#EEEEEE" stroke-width="2.4" stroke-linecap="square"/>
</g>
<g id="xAxis">
<text id="0%" transform="translate(535.284 322.616) rotate(-45)" fill="#4A4A4A" xml:space="preserve" style="white-space: pre" font-family="Roboto" font-size="18" letter-spacing="0em"><tspan x="0.691406" y="16.6523">0%</tspan></text>
<text id="50%" transform="translate(1238.5 329.546) rotate(-45)" fill="#4A4A4A" xml:space="preserve" style="white-space: pre" font-family="Roboto" font-size="18" letter-spacing="0em"><tspan x="0.566406" y="16.6523">50%</tspan></text>
<text id="40%" transform="translate(1096.47 329.546) rotate(-45)" fill="#4A4A4A" xml:space="preserve" style="white-space: pre" font-family="Roboto" font-size="18" letter-spacing="0em"><tspan x="0.566406" y="16.6523">40%</tspan></text>
<text id="30%" transform="translate(954.444 329.546) rotate(-45)" fill="#4A4A4A" xml:space="preserve" style="white-space: pre" font-family="Roboto" font-size="18" letter-spacing="0em"><tspan x="0.566406" y="16.6523">30%</tspan></text>
<text id="20%" transform="translate(812.414 329.546) rotate(-45)" fill="#4A4A4A" xml:space="preserve" style="white-space: pre" font-family="Roboto" font-size="18" letter-spacing="0em"><tspan x="0.566406" y="16.6523">20%</tspan></text>
<text id="10%" transform="translate(670.384 329.546) rotate(-45)" fill="#4A4A4A" xml:space="preserve" style="white-space: pre" font-family="Roboto" font-size="18" letter-spacing="0em"><tspan x="0.566406" y="16.6523">10%</tspan></text>
<text id="5%" transform="translate(606.299 322.616) rotate(-45)" fill="#4A4A4A" xml:space="preserve" style="white-space: pre" font-family="Roboto" font-size="18" letter-spacing="0em"><tspan x="0.691406" y="16.6523">5%</tspan></text>
<text id="45%" transform="translate(1167.49 329.546) rotate(-45)" fill="#4A4A4A" xml:space="preserve" style="white-space: pre" font-family="Roboto" font-size="18" letter-spacing="0em"><tspan x="0.566406" y="16.6523">45%</tspan></text>
<text id="35%" transform="translate(1025.46 329.546) rotate(-45)" fill="#4A4A4A" xml:space="preserve" style="white-space: pre" font-family="Roboto" font-size="18" letter-spacing="0em"><tspan x="0.566406" y="16.6523">35%</tspan></text>
<text id="25%" transform="translate(883.429 329.546) rotate(-45)" fill="#4A4A4A" xml:space="preserve" style="white-space: pre" font-family="Roboto" font-size="18" letter-spacing="0em"><tspan x="0.566406" y="16.6523">25%</tspan></text>
<text id="15%" transform="translate(741.399 329.546) rotate(-45)" fill="#4A4A4A" xml:space="preserve" style="white-space: pre" font-family="Roboto" font-size="18" letter-spacing="0em"><tspan x="0.566406" y="16.6523">15%</tspan></text>
</g>
<g id="Support Seeking">
<text id="Utilization of On-campus Mental Health Counseling Services" fill="#202020" xml:space="preserve" style="white-space: pre" font-family="Roboto" font-size="18" letter-spacing="0em"><tspan x="54.906" y="254.652">Utilization of On-campus Mental Health Counseling Services</tspan></text>
<path id="Vector_12" fill-rule="evenodd" clip-rule="evenodd" d="M18.1395 228H21.8605C25.3686 228 27.1226 228 28.2125 229.045C29.3023 230.089 29.3023 231.77 29.3023 235.133V262.325H37.6744H38.6047C39.3753 262.325 40 262.924 40 263.663C40 264.401 39.3753 265 38.6047 265H1.39535C0.624726 265 0 264.401 0 263.663C0 262.924 0.624726 262.325 1.39535 262.325H7.90698H10.6977V235.133C10.6977 231.77 10.6977 230.089 11.7875 229.045C12.8773 228 14.6314 228 18.1395 228ZM20 232.012C20.7706 232.012 21.3953 232.611 21.3953 233.349V235.578H23.7209C24.4915 235.578 25.1163 236.177 25.1163 236.916C25.1163 237.654 24.4915 238.253 23.7209 238.253H21.3953V240.482C21.3953 241.221 20.7706 241.819 20 241.819C19.2294 241.819 18.6047 241.221 18.6047 240.482V238.253H16.2791C15.5084 238.253 14.8837 237.654 14.8837 236.916C14.8837 236.177 15.5084 235.578 16.2791 235.578H18.6047V233.349C18.6047 232.611 19.2294 232.012 20 232.012ZM14.8837 245.831C14.8837 245.093 15.5084 244.494 16.2791 244.494H23.7209C24.4915 244.494 25.1163 245.093 25.1163 245.831C25.1163 246.57 24.4915 247.169 23.7209 247.169H16.2791C15.5084 247.169 14.8837 246.57 14.8837 245.831ZM14.8837 251.181C14.8837 250.442 15.5084 249.843 16.2791 249.843H23.7209C24.4915 249.843 25.1163 250.442 25.1163 251.181C25.1163 251.919 24.4915 252.518 23.7209 252.518H16.2791C15.5084 252.518 14.8837 251.919 14.8837 251.181ZM20 256.976C20.7706 256.976 21.3953 257.575 21.3953 258.313V262.325H18.6047V258.313C18.6047 257.575 19.2294 256.976 20 256.976Z" fill="#4472C4"/>
<path id="Vector_13" opacity="0.5" d="M37.0473 234.934C37.6744 235.834 37.6744 237.086 37.6744 239.59V262.325H38.6047C39.3753 262.325 40 262.924 40 263.663C40 264.401 39.3753 265 38.6047 265H1.39535C0.624726 265 0 264.401 0 263.663C0 262.924 0.624726 262.325 1.39535 262.325H2.32558V239.59C2.32558 237.086 2.32558 235.834 2.95267 234.934C3.22415 234.545 3.57299 234.211 3.97927 233.95C4.80015 233.425 8.69881 233.359 10.7107 233.351C10.7031 233.87 10.7031 234.413 10.7032 234.973L10.7032 235.133V237.361H6.04651C5.27589 237.361 4.65116 237.96 4.65116 238.699C4.65116 239.437 5.27589 240.036 6.04651 240.036H10.7032V242.711H6.04651C5.27589 242.711 4.65116 243.31 4.65116 244.048C4.65116 244.787 5.27589 245.385 6.04651 245.385H10.7032V248.06H6.04651C5.27589 248.06 4.65116 248.659 4.65116 249.398C4.65116 250.136 5.27589 250.735 6.04651 250.735H10.7032V262.325H29.3077V250.735H33.9535C34.7241 250.735 35.3488 250.136 35.3488 249.398C35.3488 248.659 34.7241 248.06 33.9535 248.06H29.3077V245.385H33.9535C34.7241 245.385 35.3488 244.787 35.3488 244.048C35.3488 243.31 34.7241 242.711 33.9535 242.711H29.3077V240.036H33.9535C34.7241 240.036 35.3488 239.437 35.3488 238.699C35.3488 237.96 34.7241 237.361 33.9535 237.361H29.3077V235.133V234.973C29.3079 234.413 29.3079 233.87 29.3003 233.351C31.3122 233.359 35.1998 233.425 36.0206 233.95C36.427 234.211 36.7758 234.545 37.0473 234.934Z" fill="#4472C4"/>
</g>
<g id="Anxiety">
<text id="Anxiety Symptoms" fill="#202020" xml:space="preserve" style="white-space: pre" font-family="Roboto" font-size="18" letter-spacing="0em"><tspan x="384.781" y="154.652">Anxiety Symptoms</tspan></text>
<path id="anxiety" fill-rule="evenodd" clip-rule="evenodd" d="M368.518 143.57C368.988 143.68 369.428 143.96 369.708 144.41C370.268 145.29 370.008 146.46 369.118 147.02L363.308 150.7C362.798 151.02 362.178 151.08 361.628 150.88C360.648 150.51 360.828 150.58 359.458 150.07C360.948 150.26 360.978 150.28 361.248 150.25C362.488 150.12 363.578 149.39 364.148 148.28L366.178 144.41L367.088 143.83C367.528 143.55 368.048 143.48 368.518 143.58V143.57ZM363.738 138.06C364.208 137.9 364.748 137.91 365.248 138.17C366.178 138.65 366.538 139.8 366.048 140.72L362.528 147.42C362.228 147.98 361.678 148.36 361.048 148.43L353.118 149.26L357.438 149.81L354.098 155.67C356.518 156.67 356.858 156.81 358.868 157.64C359.698 157.98 360.248 158.78 360.278 159.68L360.608 170.83C360.648 172.09 359.658 173.14 358.398 173.17C357.138 173.21 356.088 172.22 356.058 170.97L355.758 161.28C355.758 161.28 350.288 157.13 349.748 156.68C350.068 157.04 352.448 159.7 352.798 160.1C353.168 160.61 353.218 161.08 353.218 161.58V170.91C353.218 172.17 352.198 173.18 350.938 173.18C349.678 173.18 348.658 172.16 348.658 170.91V162.41L343.458 157.58C342.708 156.89 342.518 155.78 342.988 154.87C343.298 154.32 349.768 142.97 349.768 142.97C350.488 141.7 352.108 141.24 353.388 141.97L356.788 143.9L352.448 145.53L359.628 144.78L362.668 138.98C362.868 138.56 363.258 138.23 363.728 138.07L363.738 138.06ZM361.658 137.25C361.658 137.25 361.668 137.28 361.668 137.29C361.438 137.54 361.228 137.82 361.068 138.13L358.738 142.57C357.848 142.74 356.908 142.61 356.048 142.13C355.188 141.64 354.578 140.87 354.278 140C354.148 139.6 354.068 139.19 354.068 138.76L355.618 138.45L356.058 139.84C356.288 140.56 357.018 140.99 357.758 140.84L358.038 140.78C358.738 140.64 359.238 140.02 359.228 139.31L359.208 137.73L361.648 137.25H361.658ZM357.898 131.74C360.238 131.74 362.268 133.48 362.568 135.86C362.578 135.98 362.508 136.09 362.388 136.11L358.238 136.94L358.278 139.33C358.278 139.58 358.108 139.79 357.868 139.83L357.588 139.89C357.338 139.95 357.078 139.8 357.008 139.55L356.308 137.33L353.718 137.85C353.558 137.88 353.398 137.78 353.348 137.62C352.638 134.88 354.508 132.14 357.328 131.79C357.528 131.77 357.718 131.75 357.908 131.75L357.898 131.74ZM338.458 130.53L337.268 135.4C337.188 135.76 336.918 136.04 336.568 136.15C336.218 136.26 335.838 136.18 335.558 135.93L331.038 131.91L332.798 138.3C332.888 138.63 332.808 138.99 332.598 139.25C332.378 139.51 332.038 139.65 331.688 139.61L327.218 139.16L330.488 142.25C330.698 142.45 330.818 142.73 330.818 143.02C330.818 143.31 330.688 143.59 330.478 143.79L327.468 146.55L330.788 145.4C331.098 145.29 331.428 145.34 331.698 145.51C331.968 145.69 332.138 145.97 332.168 146.29L332.488 149.71L334.348 146.58C334.538 146.26 334.878 146.07 335.248 146.07H335.258C335.638 146.07 335.978 146.28 336.168 146.61L338.708 151.21L339.148 144.79C339.168 144.5 339.318 144.21 339.548 144.03C339.788 143.85 340.088 143.78 340.388 143.83L345.968 144.87L342.868 141.36C342.638 141.1 342.548 140.74 342.638 140.4C342.728 140.06 342.978 139.8 343.308 139.68L347.678 138.19L343.818 137.54C343.478 137.48 343.168 137.25 343.028 136.92C342.888 136.6 342.918 136.23 343.118 135.93L345.078 133.02L341.638 135.22C341.368 135.39 341.048 135.43 340.748 135.33C340.448 135.23 340.218 135.01 340.098 134.71L338.458 130.53ZM338.148 126.01C338.608 125.98 339.028 126.25 339.198 126.67L341.578 132.76L348.188 128.54C348.608 128.27 349.158 128.34 349.498 128.69C349.838 129.05 349.898 129.6 349.618 130L345.758 135.74C352.528 136.87 352.118 136.8 352.218 136.83C352.238 137.17 352.298 137.5 352.378 137.84C352.438 138.06 352.688 138.42 352.868 138.62L345.448 141.14L347.198 143.12L345.078 146.83L341.138 146.09L340.538 154.79C340.478 155.39 340.148 155.74 339.718 155.83C339.258 155.94 338.798 155.72 338.578 155.32L335.208 149.21L332.638 153.55C332.408 153.94 331.948 154.14 331.508 154.04C331.068 153.94 330.738 153.56 330.688 153.11L330.198 147.8L323.388 150.16C322.918 150.32 322.398 150.13 322.148 149.7C321.898 149.28 321.968 148.73 322.338 148.39L328.228 142.99L323.538 138.58C323.218 138.27 323.128 137.79 323.308 137.39C323.498 136.98 323.918 136.74 324.368 136.79L330.368 137.39L328.078 129.04C327.948 128.6 328.138 128.12 328.538 127.87C328.928 127.62 329.438 127.67 329.778 127.98L335.638 133.19L337.198 126.79C337.308 126.35 337.688 126.02 338.138 126L338.148 126.01Z" fill="#4472C4"/>
</g>
<g id="Depression">
<text id="Depression Symptoms" fill="#202020" xml:space="preserve" style="white-space: pre" font-family="Roboto" font-size="18" letter-spacing="0em"><tspan x="353.415" y="54.6523">Depression Symptoms</tspan></text>
<path id="depression" fill-rule="evenodd" clip-rule="evenodd" d="M313.56 53.36C313.52 52.87 312.48 55.25 307.72 55.63C302.96 56.02 301.56 53.87 301.59 54.33C301.74 56.09 304.72 59.6 308.02 59.33C311.33 59.06 313.7 55.1 313.56 53.36ZM329.67 48.74C328 48.76 326.91 49.46 326.78 49.89C326.61 50.48 328.17 51.69 330.35 52.35C332.54 53.01 334.6 52.8 334.81 52.08C334.98 51.55 333.72 49.61 331.52 48.99C330.85 48.81 330.23 48.73 329.68 48.74H329.67ZM299.17 43.3C296.65 43.5 294.73 45.08 294.78 45.68C294.83 46.28 296.87 47.23 299.5 47.3C302.03 47.37 304.07 47.09 304.01 46.35C303.97 45.79 301.69 43.1 299.17 43.3ZM314.16 42.09C311.64 42.29 309.83 45.27 309.88 45.86C309.93 46.47 312 46.48 314.49 46.08C317.05 45.66 318.94 44.45 318.88 43.7C318.84 43.15 316.67 41.87 314.16 42.08V42.09ZM336.44 41.63C338.81 41.68 339.7 43.04 338.4 49.19C335.81 61.5 327.12 68.7 320.29 67.27C319.08 67.02 317.92 66.48 316.86 65.72C316.78 65.67 316.65 65.55 316.82 65.42C318.68 64.16 320.03 62.72 321.42 60.49C321.54 60.29 321.7 60.28 321.77 60.3C321.8 60.3 321.84 60.3 321.87 60.32C325.35 61.07 326.8 62.54 326.83 62.33C327.21 60.55 325.37 58.66 323.26 57.87C323.14 57.82 322.92 57.73 323.07 57.42C325.15 52.94 325.88 47.83 325.42 42.18C325.42 42.06 325.4 41.85 325.64 41.9C330.24 42.83 334.08 41.58 336.44 41.63ZM319.27 33.06C320.75 33.41 321.63 35.36 322.05 40.56C323.19 54.46 316.24 64.86 308.53 65.49C300.82 66.12 292.28 56.98 291.14 43.09C290.01 29.19 295.8 37.68 306.2 36.84C312.66 36.31 316.8 32.47 319.27 33.06Z" fill="#4472C4"/>
</g>
<g id="yAxis">
<path id="Vector_14" d="M553.435 249.675H545.035" stroke="#EEEEEE" stroke-width="2.18182"/>
<path id="Vector_15" d="M553.435 149.805H545.035" stroke="#EEEEEE" stroke-width="2.18182"/>
<path id="Vector_16" d="M553.435 49.9351H545.035" stroke="#EEEEEE" stroke-width="2.18182"/>
</g>
<g id="Legend">
<g id="US Students">
<path id="dot-5" d="M769 391C769 393.652 767.946 396.196 766.071 398.071C764.196 399.946 761.652 401 759 401C756.348 401 753.804 399.946 751.929 398.071C750.054 396.196 749 393.652 749 391C749 388.348 750.054 385.804 751.929 383.929C753.804 382.054 756.348 381 759 381C761.652 381 764.196 382.054 766.071 383.929C767.946 385.804 769 388.348 769 391Z" fill="#4E517B"/>
<text id="US Students_2" fill="#202020" xml:space="preserve" style="white-space: pre" font-family="Roboto" font-size="18" letter-spacing="0em"><tspan x="774" y="396.652">US Students</tspan></text>
</g>
<g id="Chinese International Students">
<path id="dot-4" d="M927 391C927 393.652 925.946 396.196 924.071 398.071C922.196 399.946 919.652 401 917 401C914.348 401 911.804 399.946 909.929 398.071C908.054 396.196 907 393.652 907 391C907 388.348 908.054 385.804 909.929 383.929C911.804 382.054 914.348 381 917 381C919.652 381 922.196 382.054 924.071 383.929C925.946 385.804 927 388.348 927 391Z" fill="#C11F1F" fill-opacity="0.8"/>
<text id="Chinese International Students_2" fill="#202020" xml:space="preserve" style="white-space: pre" font-family="Roboto" font-size="18" letter-spacing="0em"><tspan x="933" y="396.652">Chinese International Students</tspan></text>
</g>
</g>
<g id="Support Seeking Line">
<path id="Vector_17" d="M613.079 249.676H709.661" stroke="#D6D6D6" stroke-width="10.08"/>
<g id="US Support Seeking">
<path id="dot-1" d="M721.771 249.904C721.771 253.086 720.507 256.138 718.257 258.389C716.006 260.639 712.954 261.904 709.771 261.904C706.589 261.904 703.536 260.639 701.286 258.389C699.036 256.138 697.771 253.086 697.771 249.904C697.771 246.721 699.036 243.669 701.286 241.418C703.536 239.168 706.589 237.904 709.771 237.904C712.954 237.904 716.006 239.168 718.257 241.418C720.507 243.669 721.771 246.721 721.771 249.904Z" fill="#4E517B"/>
<text id="11.0%" fill="#4E517B" xml:space="preserve" style="white-space: pre" font-family="Roboto" font-size="20" font-weight="900" letter-spacing="0em"><tspan x="730.686" y="256.336">11.0%</tspan></text>
</g>
<g id="CIS Support Seeking">
<path id="dot-0" d="M624.571 249.904C624.571 253.086 623.307 256.138 621.057 258.389C618.806 260.639 615.754 261.904 612.571 261.904C609.389 261.904 606.336 260.639 604.086 258.389C601.836 256.138 600.571 253.086 600.571 249.904C600.571 246.721 601.836 243.669 604.086 241.418C606.336 239.168 609.389 237.904 612.571 237.904C615.754 237.904 618.806 239.168 621.057 241.418C623.307 243.669 624.571 246.721 624.571 249.904Z" fill="#C11F1F" fill-opacity="0.8"/>
<text id="4.2%" fill="#C11F1F" xml:space="preserve" style="white-space: pre" font-family="Roboto" font-size="20" font-weight="900" letter-spacing="0em"><tspan x="556.605" y="256.336">4.2%</tspan></text>
</g>
</g>
<g id="Anxiety Line">
<path id="Vector_18" d="M968.158 149.805H738.067" stroke="#D6D6D6" stroke-width="10.08"/>
<g id="US Anxiety">
<path id="dot-3" d="M750.571 150.304C750.571 153.486 749.307 156.539 747.057 158.789C744.806 161.039 741.754 162.304 738.571 162.304C735.389 162.304 732.336 161.039 730.086 158.789C727.836 156.539 726.571 153.486 726.571 150.304C726.571 147.121 727.836 144.069 730.086 141.818C732.336 139.568 735.389 138.304 738.571 138.304C741.754 138.304 744.806 139.568 747.057 141.818C749.307 144.069 750.571 147.121 750.571 150.304Z" fill="#4E517B"/>
<text id="13.0%" fill="#4E517B" xml:space="preserve" style="white-space: pre" font-family="Roboto" font-size="20" font-weight="900" letter-spacing="0em"><tspan x="669.686" y="155.336">13.0%</tspan></text>
</g>
<g id="CIS Anxiety">
<path id="dot-2" d="M979.771 149.104C979.771 152.286 978.507 155.338 976.257 157.589C974.006 159.839 970.954 161.104 967.771 161.104C964.589 161.104 961.536 159.839 959.286 157.589C957.036 155.338 955.771 152.286 955.771 149.104C955.771 145.921 957.036 142.869 959.286 140.618C961.536 138.368 964.589 137.104 967.771 137.104C970.954 137.104 974.006 138.368 976.257 140.618C978.507 142.869 979.771 145.921 979.771 149.104Z" fill="#C11F1F" fill-opacity="0.8"/>
<text id="29.2%" fill="#C11F1F" xml:space="preserve" style="white-space: pre" font-family="Roboto" font-size="20" font-weight="900" letter-spacing="0em"><tspan x="985" y="156.336">29.2%</tspan></text>
</g>
</g>
<g id="Depression Line">
<path id="Vector_19" d="M1198.25 49.9351H735.226" stroke="#D6D6D6" stroke-width="10.08"/>
<g id="US Depression">
<path id="dot-5_2" d="M746.971 49.5034C746.971 52.686 745.707 55.7383 743.456 57.9887C741.206 60.2391 738.154 61.5034 734.971 61.5034C731.789 61.5034 728.736 60.2391 726.486 57.9887C724.235 55.7383 722.971 52.686 722.971 49.5034C722.971 46.3208 724.235 43.2686 726.486 41.0181C728.736 38.7677 731.789 37.5034 734.971 37.5034C738.154 37.5034 741.206 38.7677 743.456 41.0181C745.707 43.2686 746.971 46.3208 746.971 49.5034Z" fill="#4E517B"/>
<text id="12.8%" fill="#4E517B" xml:space="preserve" style="white-space: pre" font-family="Roboto" font-size="20" font-weight="900" letter-spacing="0em"><tspan x="663.686" y="56.3359">12.8%</tspan></text>
</g>
<g id="CIS Depression">
<path id="dot-4_2" d="M1210.17 49.5034C1210.17 52.686 1208.91 55.7383 1206.66 57.9887C1204.41 60.2391 1201.35 61.5034 1198.17 61.5034C1194.99 61.5034 1191.94 60.2391 1189.69 57.9887C1187.44 55.7383 1186.17 52.686 1186.17 49.5034C1186.17 46.3208 1187.44 43.2686 1189.69 41.0181C1191.94 38.7677 1194.99 37.5034 1198.17 37.5034C1201.35 37.5034 1204.41 38.7677 1206.66 41.0181C1208.91 43.2686 1210.17 46.3208 1210.17 49.5034Z" fill="#C11F1F" fill-opacity="0.8"/>
<text id="45.4%" fill="#C11F1F" xml:space="preserve" style="white-space: pre" font-family="Roboto" font-size="20" font-weight="900" letter-spacing="0em"><tspan x="1218" y="56.3359">45.4%</tspan></text>
</g>
</g>
</g>
</svg>
