<svg viewBox="0 0 2259 1664" width="650" xmlns="http://www.w3.org/2000/svg" xmlns:xlink="http://www.w3.org/1999/xlink" xml:space="preserve" overflow="hidden"><g transform="translate(-1070 -405)"><path d="M1094 1203C1129.95 1340.83 1205.46 1459.71 1324.61 1517.61 1572.69 1637 2132.02 1575.51 2549.08 1504.29 2765.31 1467.91 2954.84 1366.45 3093 1224.01 1094 1203 1094 1203 1094 1203" fill="#FFC107" fill-rule="evenodd" fill-opacity="0.2"/><path d="M3282.46 555.015C3053.45 555.015 3053.45 555.015 3053.45 555.015 3042.66 555.015 3033.42 547.331 3033.42 537.599 3033.42 527.354 3042.66 519.67 3053.45 519.67 3092.98 519.67 3092.98 519.67 3092.98 519.67 3082.2 519.67 3073.47 511.475 3073.47 501.742 3073.47 492.009 3082.2 483.814 3092.98 483.814 3064.74 483.814 3064.74 483.814 3064.74 483.814 3053.96 483.814 3044.72 475.618 3044.72 465.885 3044.72 456.153 3053.96 447.957 3064.74 447.957 3184.39 447.957 3184.39 447.957 3184.39 447.957 3157.68 437.2 3126.87 429.004 3090.93 424.906 2765.38 387 2648.82 412.1 2607.74 437.712 2556.39 469.983 2499.91 492.522 2440.34 504.303 2239.05 541.697 1863.18 586.774 1522.74 489.96 1353.29 441.298 1227.48 522.744 1152 659 3322 659 3322 659 3322 659 3319.43 619.557 3310.7 582.676 3295.3 550.917 3291.7 553.991 3287.08 555.527 3282.46 555.015Z" fill="#FFC107" fill-rule="evenodd" fill-opacity="0.2"/><path d="M1075.24 916C1066 996.087 1069.08 1077.2 1083.97 1156.26 3094.33 1223 3094.33 1223 3094.33 1223 3149.27 1165.5 3196.51 1100.82 3234 1030.48 1075.24 916 1075.24 916 1075.24 916M1870.14 1087.47C1830.6 1087.47 1830.6 1087.47 1830.6 1087.47 1841.39 1087.47 1850.12 1095.68 1850.12 1105.44 1850.12 1115.19 1841.39 1123.4 1830.6 1123.4 1601.58 1123.4 1601.58 1123.4 1601.58 1123.4 1590.8 1123.4 1581.55 1115.19 1581.55 1105.44 1581.55 1095.68 1590.8 1087.47 1601.58 1087.47 1641.12 1087.47 1641.12 1087.47 1641.12 1087.47 1630.34 1087.47 1621.61 1079.25 1621.61 1069.5 1621.61 1059.75 1630.34 1051.53 1641.12 1051.53 1612.88 1051.53 1612.88 1051.53 1612.88 1051.53 1602.09 1051.53 1592.85 1043.83 1592.85 1034.08 1592.85 1023.81 1602.09 1016.11 1612.88 1016.11 1841.9 1016.11 1841.9 1016.11 1841.9 1016.11 1852.68 1016.11 1861.41 1023.81 1861.41 1034.08 1861.41 1043.83 1852.68 1051.53 1841.9 1051.53 1870.14 1051.53 1870.14 1051.53 1870.14 1051.53 1880.93 1051.53 1889.66 1059.75 1889.66 1069.5 1889.66 1079.77 1880.93 1087.47 1870.14 1087.47" fill="#FFC107" fill-rule="evenodd" fill-opacity="0.2"/><path d="M3321.92 661C1127.37 709.142 1127.37 709.142 1127.37 709.142 1100.67 771.111 1083.22 841.275 1075 914 3283.92 914 3283.92 914 3283.92 914 3298.3 871.492 3308.57 827.447 3315.76 783.403 3321.92 740.895 3325 699.411 3321.92 661" fill="#FFC107" fill-rule="evenodd" fill-opacity="0.2"/><path d="M1521.43 818.163C1481.78 818.163 1481.78 818.163 1481.78 818.163 1492.59 818.163 1501.34 826.354 1501.34 836.081 1501.34 845.808 1492.59 854 1481.78 854 1252.08 854 1252.08 854 1252.08 854 1241.27 854 1232 845.808 1232 836.081 1232 826.354 1241.27 818.163 1252.08 818.163 1291.74 818.163 1291.74 818.163 1291.74 818.163 1280.93 818.163 1272.17 810.483 1272.17 800.756 1272.17 790.517 1280.93 782.837 1291.74 782.837 1263.42 782.837 1263.42 782.837 1263.42 782.837 1252.6 782.837 1243.33 774.646 1243.33 764.919 1243.33 755.191 1252.6 747 1263.42 747 1493.1 747 1493.1 747 1493.1 747 1503.92 747 1512.68 755.191 1512.68 764.919 1512.68 774.646 1503.92 782.837 1493.1 782.837 1521.43 782.837 1521.43 782.837 1521.43 782.837 1532.24 782.837 1541 790.517 1541 800.756 1541 810.483 1532.24 818.163 1521.43 818.163Z" fill="#FFC107" fill-rule="evenodd" fill-opacity="0.2"/><path d="M1271 1923C1271 1876.06 1682.23 1838 2189.5 1838 2696.77 1838 3108 1876.06 3108 1923 3108 1969.94 2696.77 2008 2189.5 2008 1682.23 2008 1271 1969.94 1271 1923Z" fill="#FFC107" fill-rule="evenodd" fill-opacity="0.2"/><path d="M2802.6 1071.56C2800.54 1052.59 2780 1036.19 2786.16 1018.24 2789.76 1008.5 2800.03 1002.35 2803.63 992.606 2806.19 985.941 2805.17 978.763 2805.17 972.098 2805.17 965.432 2806.71 957.742 2812.36 953.64 2819.03 949.538 2827.25 952.614 2834.95 955.691 2841.63 958.254 2848.31 960.818 2854.98 959.28 2858.58 957.742 2861.66 956.716 2865.26 954.665 2881.69 948 2900.69 960.305 2910.45 975.687 2919.7 991.068 2923.29 1009.01 2931.51 1025.42 2934.08 1031.57 2938.19 1037.21 2943.84 1041.31 2949.49 1044.9 2957.19 1046.44 2962.84 1043.36 2986.47 1095.66 2986.47 1095.66 2986.47 1095.66 2992.63 1108.99 2999.82 1123.86 3013.17 1129.5 3019.34 1132.58 3026.01 1133.09 3032.18 1135.14 3046.04 1139.75 3056.31 1151.55 3058.88 1166.42 3059.91 1170.52 3059.91 1175.64 3061.45 1179.75 3066.59 1194.1 3084.56 1197.18 3097.92 1204.36 3105.62 1208.97 3111.78 1215.12 3116.4 1222.3 3118.46 1225.89 3120 1230.5 3117.95 1234.09 3113.84 1240.25 3102.02 1236.66 3097.92 1243.32 3096.37 1246.4 3097.4 1250.5 3097.92 1254.09 3099.97 1269.47 3082.51 1283.31 3068.13 1278.19 3066.07 1287.93 3064.02 1298.69 3055.8 1304.85 3047.58 1311 3034.74 1309.46 3026.01 1303.31 3017.79 1296.64 3012.15 1286.9 3008.55 1277.16 3003.93 1264.86 3000.85 1251.53 2990.57 1243.32 2986.47 1240.76 2982.36 1238.71 2978.25 1236.14 2970.03 1229.99 2965.92 1219.74 2963.35 1209.48 2959.24 1197.18 2956.16 1184.36 2951.03 1172.06 2945.38 1160.26 2936.65 1149.5 2924.83 1143.86 2913.53 1139.24 2900.69 1139.24 2888.88 1135.14 2869.37 1128.47 2854.47 1111.56 2834.44 1103.86 2828.28 1101.3 2822.11 1097.71 2816.98 1093.61 2806.71 1086.94 2804.14 1083.36 2802.6 1071.56" fill="#3F3D56" fill-rule="evenodd"/><path d="M2808 958C2806 962.138 2805 966.793 2805.5 970.931 2805.5 976.621 2806 982.31 2805 988 2805 988 2805 988 2805 987.483 2806 982.31 2805.5 977.138 2805.5 971.448 2805.5 967.31 2806 962.655 2808 958.517 2808 958.517 2808 958.517 2808 958" fill="#E5E5E5" fill-rule="evenodd"/><path d="M2807.57 959C2805.86 963.143 2805.43 967.804 2805.43 971.946 2805.43 977.643 2805.86 982.821 2805 988 2805.43 987.482 2805.86 986.964 2805.86 985.929 2808 979.714 2807.14 972.464 2807.14 965.214 2807.14 963.143 2807.14 961.071 2807.57 959" fill="#39374D" fill-rule="evenodd"/><path d="M2789 1015C2789 1015 2788 1015.5 2788 1016 2788 1015.5 2788 1015.5 2789 1015 2789 1015 2789 1015 2789 1015" fill="#E5AD06" fill-rule="evenodd"/><path d="M2788.23 1015C2787.71 1015.51 2787.71 1015.51 2787.71 1016.03 2787.2 1016.54 2787.2 1017.05 2787.2 1017.56 2781 1035.51 2801.66 1051.92 2803.73 1070.9 2804.76 1082.69 2807.86 1086.28 2817.15 1093.46 2818.19 1093.97 2819.22 1094.49 2819.74 1095 2823.87 1094.49 2825.93 1093.97 2828 1092.44 2824.9 1090.9 2822.32 1088.85 2819.22 1087.31 2809.92 1080.64 2806.82 1076.54 2805.79 1064.74 2803.73 1046.79 2785.65 1031.41 2788.23 1015" fill="#39374D" fill-rule="evenodd"/><path d="M2977 1227C2978.03 1235.77 2978.03 1235.77 2978.03 1235.77 2978.03 1235.77 2978.03 1235.77 2978.03 1235.77 2982.14 1238.86 2986.26 1240.41 2989.86 1243.5 3000.15 1251.24 3003.75 1265.16 3008.38 1277.03 3011.98 1287.34 3017.13 1297.14 3025.87 1303.33 3031.02 1306.94 3037.19 1309 3042.85 1309 3047.48 1309 3052.11 1307.45 3055.71 1304.87 3061.37 1300.75 3063.94 1294.56 3066 1287.86 3064.46 1291.98 3061.37 1296.11 3057.77 1298.69 3054.17 1301.78 3049.54 1302.81 3044.91 1302.81 3038.73 1302.81 3033.07 1300.75 3027.93 1297.14 3019.18 1290.95 3014.04 1281.15 3010.44 1270.84 3005.81 1258.97 3002.72 1245.05 2991.92 1237.31 2988.32 1234.22 2983.69 1232.67 2980.09 1229.58 2979.06 1229.06 2978.03 1228.03 2977 1227" fill="#39374D" fill-rule="evenodd"/><path d="M3120 1229C3114.62 1233.68 3103.85 1231.08 3100.08 1236.8 3099.54 1238.36 3099 1239.92 3099 1242 3103.85 1237.32 3115.15 1239.92 3118.92 1233.68 3119.46 1232.64 3120 1231.08 3120 1230.04 3120 1229.52 3120 1229 3120 1229" fill="#39374D" fill-rule="evenodd"/><path d="M3098 1259C3093.93 1266.69 3085.28 1272.85 3076.63 1272.85 3074.6 1272.85 3072.56 1272.33 3070.02 1271.82 3070.02 1273.87 3069.51 1275.92 3069 1277.97 3071.04 1278.49 3072.56 1279 3074.6 1279 3085.28 1279 3095.96 1269.77 3098 1259" fill="#39374D" fill-rule="evenodd"/><path d="M2829.38 1081.02C2829.38 1081.02 2836.05 1094.85 2816.03 1094.85 2796 1095.37 2828.86 1184.49 2828.86 1184.49 2862.76 1227 2862.76 1227 2862.76 1227 2904.35 1204.46 2904.35 1204.46 2904.35 1204.46 2906.92 1142.49 2906.92 1142.49 2906.92 1142.49 2910 1105.1 2910 1105.1 2910 1105.1 2910 1105.1 2870.97 1092.29 2878.16 1075.39 2885.35 1059 2829.38 1081.02 2829.38 1081.02" fill="#FBBEBE" fill-rule="evenodd"/><path d="M2951 1444.34C2951 1444.34 2975.46 1469 3004 1436.63 2982.09 1413 2982.09 1413 2982.09 1413 2954.57 1413 2954.57 1413 2954.57 1413 2951 1444.34 2951 1444.34 2951 1444.34" fill="#575A89" fill-rule="evenodd"/><path d="M2951.5 1444.61C2951.5 1445.13 2951.5 1445.13 2951.5 1445.65 2954 1447.74 2962 1454 2972.5 1454 2972.5 1454 2972.5 1454 2973 1454 2960 1453.48 2951.5 1445.13 2951.5 1444.61M2951.5 1444.61C2951.5 1444.61 2951.5 1444.61 2951.5 1444.61 2951.5 1444.61 2951.5 1444.61 2951.5 1444.61 2951.5 1444.61 2951.5 1444.61 2951.5 1444.61M2951 1442C2951 1442.52 2951 1442.52 2951 1442.52 2951 1443.04 2951.5 1443.57 2951.5 1444.09 2951 1442 2951 1442 2951 1442" fill="#E5E5E5" fill-rule="evenodd"/><path d="M2975.7 1428C2966.44 1428 2956.66 1431.64 2951 1444.64 2951 1444.64 2951 1444.64 2951 1444.64 2951 1444.64 2951 1444.64 2951 1444.64 2951 1445.16 2959.75 1453.48 2973.13 1454 2981.87 1453.48 2992.68 1449.84 3004 1436.84 2990.62 1430.6 2990.62 1430.6 2990.62 1430.6 2985.99 1429.04 2980.84 1428 2975.7 1428" fill="#4E517B" fill-rule="evenodd"/><path d="M2995.37 1418C2995.37 1418 3005.18 1443.67 3012.41 1451.88 3019.64 1459.58 3031 1514 3016.02 1507.84 3001.05 1501.68 2972.13 1455.99 2970.07 1447.78 2968.52 1440.07 2968 1418 2968 1418L2995.37 1418Z" fill="#FBBEBE" fill-rule="evenodd"/><path d="M2780 1551.83 2912 1557 2897.14 1500.15 2830.29 1499 2780 1551.83Z" fill="#575A89" fill-rule="evenodd"/><path d="M2840.7 1523C2837.66 1524.53 2834.61 1526.05 2831.56 1527.58 2830.54 1528.08 2829.52 1528.59 2828.51 1529.61 2828.51 1531.14 2828.51 1533.17 2828.51 1535.71 2828.51 1540.29 2828.51 1545.88 2828 1551.98 2859 1553 2859 1553 2859 1553 2859 1549.44 2859 1545.37 2858.49 1541.31 2858.49 1539.27 2858.49 1537.24 2858.49 1535.2 2849.85 1529.1 2842.74 1524.53 2840.7 1523" fill="#4E517B" fill-rule="evenodd"/><path d="M2822.42 1643.47C2819.37 1649.64 2820.89 1669.69 2821.91 1684.6 2822.92 1694.37 2823.94 1701.57 2823.94 1701.57 2823.94 1701.57 2774.7 1717 2767.6 1703.63 2765.57 1700.03 2764.55 1694.37 2764.05 1687.18 2763.03 1666.61 2767.6 1637.3 2767.6 1637.3 2767.6 1637.3 2765.57 1591.53 2764.55 1586.9 2764.05 1585.36 2763.54 1579.71 2762.52 1573.53 2762.02 1564.28 2761 1553.99 2761 1553.99 2828 1518 2828 1518 2828 1518 2828 1518 2828 1524.68 2828 1535.48 2827.49 1567.88 2826.48 1636.27 2822.42 1643.47" fill="#FBBEBE" fill-rule="evenodd"/><path d="M2807.1 1683C2790.68 1683 2771.7 1685.67 2764 1686.73 2764.51 1688.33 2764.51 1689.93 2764.51 1691 2772.21 1689.93 2791.19 1687.27 2807.1 1687.27 2812.74 1687.27 2818.38 1687.8 2823 1688.33 2823 1687.27 2823 1685.67 2822.49 1684.07 2822.49 1684.07 2822.49 1684.07 2822.49 1684.07 2818.38 1683.53 2812.74 1683 2807.1 1683" fill="#E1ABAB" fill-rule="evenodd"/><path d="M2826.23 1960C2825.71 1960 2825.71 1960 2825.71 1960 2819.52 1960 2785.45 1960 2785.45 1960 2784.94 1959.49 2784.42 1958.97 2783.9 1958.46 2777.71 1950.75 2776.16 1940.47 2779.77 1931.22 2785.97 1914.26 2786.48 1883.43 2786.48 1883.43 2786.48 1883.43 2789.06 1875.72 2787 1871.09 2784.94 1866.98 2785.97 1859.79 2785.97 1859.79 2785.97 1857.22 2784.94 1854.65 2783.9 1852.08 2782.35 1847.97 2784.42 1840.26 2784.42 1840.26 2784.42 1833.06 2782.87 1825.87 2780.81 1818.67 2777.71 1809.94 2755 1704.07 2760.68 1691.22 2760.68 1691.22 2808.68 1683 2827.26 1689.17 2824.68 1771.39 2824.68 1771.39 2824.68 1771.39 2824.68 1771.39 2815.9 1796.06 2823.13 1802.74 2830.35 1809.42 2823.65 1829.47 2823.65 1829.47 2823.65 1829.47 2822.61 1833.06 2828.81 1845.91 2835 1858.76 2828.81 1864.41 2828.81 1864.41 2828.81 1888.57 2828.81 1888.57 2828.81 1888.57 2828.81 1888.57 2824.16 1905.01 2829.32 1918.37 2835 1931.73 2828.81 1959.49 2826.23 1960" fill="#3F3D56" fill-rule="evenodd"/><path d="M2920.33 1643.57C2917.24 1649.73 2918.79 1669.76 2919.82 1684.65 2920.85 1694.41 2921.88 1701.59 2921.88 1701.59 2921.88 1701.59 2871.91 1717 2864.7 1703.65 2862.64 1700.05 2861.61 1694.41 2861.61 1687.22 2860.58 1666.68 2864.7 1637.41 2864.7 1637.41 2864.7 1637.41 2862.64 1591.7 2861.61 1587.08 2861.09 1585.03 2860.06 1561.92 2859.03 1541.38 2858.52 1523.92 2858 1508 2858 1508 2926 1518.27 2926 1518.27 2926 1518.27 2926 1518.27 2926 1548.05 2925.48 1578.86 2924.45 1608.65 2922.91 1638.95 2920.33 1643.57" fill="#FBBEBE" fill-rule="evenodd"/><path d="M2904.23 1683C2888.46 1683 2869.12 1685.67 2862 1686.73 2862 1688.33 2862 1689.93 2862 1691 2869.63 1689.93 2888.46 1687.27 2904.23 1687.27 2910.33 1687.27 2915.42 1687.27 2920 1688.33 2920 1687.27 2920 1685.67 2919.49 1684.07 2919.49 1684.07 2919.49 1684.07 2919.49 1684.07 2915.42 1683.53 2909.82 1683 2904.23 1683" fill="#E1ABAB" fill-rule="evenodd"/><path d="M2923.34 1960C2922.83 1960 2922.83 1960 2922.83 1960 2916.71 1960 2883.07 1960 2883.07 1960 2882.56 1959.49 2882.05 1958.97 2881.54 1958.46 2875.94 1950.75 2873.9 1940.47 2877.46 1931.22 2883.58 1914.26 2884.09 1883.43 2884.09 1883.43 2884.09 1883.43 2886.64 1875.72 2884.6 1871.09 2882.56 1866.98 2883.58 1859.79 2883.58 1859.79 2883.58 1857.22 2882.56 1854.65 2881.54 1852.08 2880.01 1847.97 2882.05 1840.26 2882.05 1840.26 2882.05 1833.06 2880.52 1825.87 2878.48 1818.67 2875.43 1809.94 2853 1704.07 2858.61 1691.22 2858.61 1691.22 2906.01 1683 2924.35 1689.17 2921.81 1771.39 2921.81 1771.39 2921.81 1771.39 2921.81 1771.39 2913.14 1796.06 2920.28 1802.74 2927.41 1809.42 2920.79 1829.47 2920.79 1829.47 2920.79 1829.47 2919.77 1833.06 2925.88 1845.91 2932 1858.76 2925.88 1864.41 2925.88 1864.41 2925.88 1888.57 2925.88 1888.57 2925.88 1888.57 2925.88 1888.57 2921.3 1905.01 2926.39 1918.37 2932 1931.73 2925.88 1959.49 2923.34 1960" fill="#3F3D56" fill-rule="evenodd"/><path d="M2897.97 1071.05C2893.86 1078.22 2888.2 1084.37 2881.01 1088.46 2881.52 1088.98 2882.03 1089.49 2882.55 1090 2889.23 1085.39 2894.89 1079.24 2899 1072.07 2898.49 1071.56 2898.49 1071.56 2897.97 1071.05M2808 1048C2808 1048.51 2808 1049.02 2808 1049.02 2808 1065.93 2816.74 1081.29 2830.11 1089.49 2830.11 1088.98 2830.62 1088.46 2830.62 1087.95 2817.25 1079.76 2808.51 1064.9 2808 1048" fill="#39374D" fill-rule="evenodd"/><path d="M2830.51 1088C2830.51 1088.5 2830 1089 2830 1089.5 2837.65 1094.5 2846.31 1097 2856 1097 2865.69 1097 2874.35 1094.5 2882 1090 2881.49 1089.5 2880.98 1089 2880.47 1088.5 2873.33 1093 2865.18 1095 2856 1095 2846.82 1095 2837.65 1092.5 2830.51 1088" fill="#E1ABAB" fill-rule="evenodd"/><path d="M2808 1047C2808 1020.49 2829.71 999 2856.5 999 2883.29 999 2905 1020.49 2905 1047 2905 1073.51 2883.29 1095 2856.5 1095 2829.71 1095 2808 1073.51 2808 1047Z" fill="#FBBEBE" fill-rule="evenodd"/><path d="M2828 1530C2818.35 1535.63 2803.12 1544.84 2788.91 1553.02 2781.29 1557.63 2773.68 1561.72 2767.58 1565.81 2765.55 1566.33 2764.03 1567.35 2762 1567.86 2762.51 1569.91 2762.51 1571.95 2762.51 1574 2764.54 1573.49 2766.06 1572.47 2767.58 1571.95 2773.68 1567.86 2781.29 1563.77 2788.91 1559.16 2803.12 1550.98 2817.85 1541.77 2828 1536.14 2828 1533.58 2828 1531.53 2828 1530" fill="#E1ABAB" fill-rule="evenodd"/><path d="M2859 1535C2859 1537.07 2859 1539.14 2859.51 1541.21 2871.28 1550.01 2885.6 1561.4 2890.72 1570.72 2893.28 1575.38 2900.44 1577.45 2909.14 1578.48 2913.23 1579 2916.81 1579 2920.4 1579 2921.93 1579 2922.95 1579 2924.49 1579 2925 1579 2925 1579 2925 1579 2925 1576.93 2925 1574.86 2925 1572.79 2925 1572.79 2924.49 1572.79 2924.49 1572.79 2922.95 1572.79 2921.93 1572.79 2920.4 1572.79 2916.81 1572.79 2913.23 1572.79 2909.14 1572.27 2900.44 1571.24 2893.28 1569.16 2890.72 1564.51 2885.6 1555.19 2871.28 1543.8 2859 1535" fill="#E1ABAB" fill-rule="evenodd"/><path d="M2913.36 1258.16C2911.3 1271.49 2911.3 1284.83 2912.33 1298.16 2943.18 1323.8 2937.52 1378.15 2937.52 1378.15 2937.52 1378.15 2961.69 1487.37 2956.55 1497.11 2951.41 1507.37 2967.86 1567.87 2967.86 1567.87 2953.46 1570.95 2939.07 1572.49 2924.67 1573 2919.53 1573 2914.39 1573 2909.25 1572.49 2900.51 1571.46 2893.31 1569.41 2890.74 1564.8 2881.48 1547.87 2839.84 1522.75 2839.84 1522.75 2839.84 1522.75 2813.62 1538.64 2788.94 1553 2781.23 1557.62 2773.52 1561.72 2767.35 1565.82 2761.69 1568.39 2756.04 1569.92 2749.87 1570.44 2721.07 1572.49 2682 1554.54 2688.17 1547.87 2695.88 1540.18 2733.41 1401.74 2733.41 1401.74 2733.41 1401.74 2751.92 1316.62 2768.37 1304.31 2771.46 1302.26 2773.52 1299.18 2774.54 1296.11 2780.2 1280.21 2770.95 1255.09 2770.95 1255.09 2770.95 1255.09 2717.99 1189.96 2720.05 1186.37 2722.62 1182.27 2722.62 1162.27 2722.62 1162.27 2722.62 1162.27 2729.3 1130.48 2732.9 1115.1 2736.5 1099.72 2763.75 1096.13 2771.46 1097.15 2779.69 1098.69 2797.17 1103.31 2804.88 1097.15 2812.08 1091 2824.93 1099.72 2824.93 1099.72 2856.29 1108.43 2856.29 1108.43 2856.29 1108.43 2884.57 1092.03 2884.57 1092.03 2884.57 1092.03 2884.57 1092.03 2912.33 1093.56 2914.9 1097.15 2917.47 1100.74 2954.49 1107.92 2954.49 1107.92 2973 1120.74 2972.49 1180.73 2972.49 1180.73 2972.49 1180.73 2927.24 1220.22 2917.99 1240.21 2915.42 1245.86 2913.87 1252.01 2913.36 1258.16" fill="#575A89" fill-rule="evenodd"/><path d="M2962.26 1172C2972.56 1180.23 2972.56 1180.23 2972.56 1180.23 2983.37 1275.85 2983.37 1275.85 2983.37 1275.85 2993.67 1371.99 2993.67 1371.99 2993.67 1371.99 2993.67 1371.99 2997.79 1381.25 3001.4 1380.22 3005 1379.19 3004.49 1437.29 3004.49 1437.29 3004.49 1437.29 2964.83 1413.12 2950.93 1445 2940.11 1367.88 2940.11 1367.88 2940.11 1367.88 2940.11 1367.88 2925.69 1288.71 2926.21 1282.54 2926.72 1276.37 2919 1209.53 2919 1209.53 2962.26 1172 2962.26 1172 2962.26 1172" fill="#575A89" fill-rule="evenodd"/><path d="M2727.81 1177C2719.97 1186.22 2719.97 1186.22 2719.97 1186.22 2719.97 1186.22 2721.02 1225.68 2714.75 1235.41 2709 1244.64 2731.47 1301 2739.83 1297.41 2748.19 1293.83 2767 1206.72 2767 1205.69 2767 1204.67 2727.81 1177 2727.81 1177" fill="#575A89" fill-rule="evenodd"/><path d="M2727.9 1233C2727.9 1233 2704 1257.36 2705.53 1269.28 2707.56 1280.68 2729.94 1318 2762.49 1297.79 2762.49 1297.79 2793 1240.26 2727.9 1233Z" fill="#575A89" fill-rule="evenodd"/><path d="M2784 1958C2784 1958 2784 1958 2784 1958 2784.52 1958.67 2785.04 1959.33 2785.56 1960 2785.56 1960 2800.59 1960 2812.52 1960 2818.74 1960 2823.93 1960 2826 1960 2826 1960 2826 1960 2826 1960 2823.93 1960 2818.74 1960 2812.52 1960 2800.59 1960 2785.56 1960 2785.56 1960 2785.04 1959.33 2784.52 1958.67 2784 1958" fill="#E5AD06" fill-rule="evenodd"/><path d="M2805.78 1955C2796.96 1955 2789.19 1957 2784 1958.5 2784.52 1959 2785.04 1959.5 2785.56 1960 2785.56 1960 2800.59 1960 2812.52 1960 2818.74 1960 2823.93 1960 2826 1960 2819.78 1956 2812.52 1955 2805.78 1955" fill="#39374D" fill-rule="evenodd"/><path d="M2882 1958C2882 1958 2882 1958 2882 1958 2882 1958.67 2882.5 1959.33 2883 1960 2883 1960 2898 1960 2909.5 1960 2915 1960 2920 1960 2922 1960 2922 1960 2922 1960 2922 1960 2920 1960 2915 1960 2909.5 1960 2898 1960 2883 1960 2883 1960 2882.5 1959.33 2882 1958.67 2882 1958" fill="#E5AD06" fill-rule="evenodd"/><path d="M2902.5 1955C2894 1955 2886.5 1957 2882 1958.5 2882 1959 2882.5 1959.5 2883 1960 2883 1960 2898 1960 2909.5 1960 2915 1960 2920 1960 2922 1960 2916 1956 2909 1955 2902.5 1955" fill="#39374D" fill-rule="evenodd"/><path d="M2792 1359C2778.54 1419.43 2748 1556.68 2750.07 1570 2756.28 1569.49 2761.98 1567.95 2767.67 1565.39 2773.88 1561.29 2781.65 1557.2 2789.41 1552.59 2788.38 1508.54 2786.82 1408.68 2792 1359" fill="#4E517B" fill-rule="evenodd"/><path d="M2798 1330C2795.23 1333.62 2793.38 1344.5 2792 1359 2795.69 1341.91 2797.54 1331.04 2798 1330" fill="#4E517B" fill-rule="evenodd"/><path d="M2840 1522C2840 1522 2837 1524 2832 1527 2835 1525.5 2838 1524 2841 1522.5 2840.5 1522.5 2840 1522 2840 1522" fill="#46496E" fill-rule="evenodd"/><path d="M2824 1530C2824 1530 2824 1530 2824 1530 2824 1530 2824 1530 2824 1530M2825.56 1529.49C2825.04 1529.49 2824.52 1529.49 2824 1530 2824 1529.49 2824.52 1529.49 2825.56 1529.49M2881.58 1325C2884.18 1502.84 2834.38 1526.41 2825.56 1529.49 2827.63 1528.97 2829.71 1527.95 2831.26 1527.44 2836.45 1524.36 2839.56 1522.31 2839.56 1522.31 2839.56 1522.31 2840.08 1522.82 2840.6 1522.82 2907 1482.85 2881.58 1325 2881.58 1325" fill="#4E517B" fill-rule="evenodd"/><path d="M2886 1323C2909.4 1572.49 2909.4 1572.49 2909.4 1572.49 2913.56 1573 2917.2 1573 2920.84 1573 2922.4 1573 2923.44 1573 2925 1573 2919.28 1509.99 2901.08 1332.73 2886 1323" fill="#4E517B" fill-rule="evenodd"/><path d="M2927 1049.42C2927 1050.98 2926.49 1052.55 2926.49 1053.59 2925.98 1057.77 2924.45 1061.95 2922.4 1065.08 2921.38 1067.69 2919.34 1069.78 2916.78 1071.35 2914.23 1072.39 2912.18 1072.91 2909.63 1072.91 2909.12 1072.91 2908.61 1072.91 2908.61 1072.91 2908.61 1072.91 2908.61 1072.91 2908.1 1072.91 2905.54 1072.91 2902.99 1072.39 2900.43 1070.82 2900.43 1070.82 2899.92 1070.82 2899.92 1070.82 2899.41 1071.35 2899.41 1071.87 2898.9 1072.39 2899.41 1072.39 2899.92 1072.91 2900.43 1072.91 2902.99 1074.48 2905.54 1075 2908.1 1075 2908.61 1075 2908.61 1075 2908.61 1075 2908.61 1075 2909.12 1075 2909.63 1075 2912.18 1075 2914.23 1074.48 2916.78 1073.43 2919.34 1071.87 2921.38 1069.78 2922.4 1067.17 2925.98 1061.95 2927 1055.68 2927 1049.42M2819.2 1016C2816.64 1016 2814.6 1016.52 2812.04 1016.52 2811.53 1017.57 2810.51 1018.09 2810 1019.13 2812.55 1018.61 2815.11 1018.61 2817.66 1018.09 2818.17 1017.57 2818.69 1017.04 2819.2 1016" fill="#39374D" fill-rule="evenodd"/><path d="M2899 1070C2898.5 1070.5 2898.5 1071 2898 1071 2898.5 1071.5 2898.5 1071.5 2899 1072 2899.5 1071.5 2899.5 1071 2900 1070.5 2899.5 1070 2899 1070 2899 1070" fill="#333145" fill-rule="evenodd"/><path d="M2822.08 1016C2821.57 1016 2821.57 1016 2821.06 1016 2820.55 1016 2820.04 1016 2819.53 1016 2819.02 1017.04 2818.51 1017.56 2818 1018.08 2819.02 1018.08 2820.04 1018.08 2821.06 1018.08 2821.57 1018.08 2821.57 1018.08 2822.08 1018.08 2823.09 1018.08 2824.62 1018.08 2825.64 1018.59 2827.68 1019.63 2829.72 1021.19 2831.25 1023.26 2835.32 1026.38 2839.91 1027.93 2844.49 1027.93 2846.53 1027.93 2848.57 1027.42 2850.6 1026.9 2853.15 1025.86 2855.7 1025.34 2858.25 1024.82 2861.81 1024.82 2865.38 1027.93 2867.42 1031.05 2869.45 1034.16 2870.47 1038.31 2872 1041.94 2874.04 1045.58 2876.58 1048.69 2880.66 1049.73 2882.19 1049.73 2884.23 1050.25 2885.75 1050.76 2886.77 1051.8 2887.79 1052.84 2888.3 1053.88 2890.85 1060.1 2892.89 1067.37 2897.98 1071 2898.49 1071 2898.49 1070.48 2899 1069.96 2893.4 1065.81 2890.85 1058.55 2888.3 1051.8 2887.79 1050.76 2886.77 1049.73 2885.75 1048.69 2884.23 1048.17 2882.19 1047.65 2880.66 1047.65 2876.58 1046.61 2874.04 1043.5 2872 1039.87 2870.47 1036.24 2869.45 1032.09 2867.42 1028.97 2865.38 1025.86 2861.81 1022.75 2858.25 1022.75 2856.72 1022.75 2855.7 1023.26 2854.17 1023.26 2853.15 1023.78 2852.13 1024.3 2850.6 1024.82 2848.57 1025.34 2846.53 1025.86 2844.49 1025.86 2842.45 1025.86 2839.91 1025.34 2837.87 1024.82 2835.32 1023.78 2833.28 1022.75 2831.25 1021.19 2829.72 1019.11 2827.68 1017.56 2825.64 1016.52 2824.62 1016 2823.09 1016 2822.08 1016" fill="#E1ABAB" fill-rule="evenodd"/><path d="M2820.77 1016.91C2822.31 1016.91 2823.85 1016.91 2825.39 1017.42 2827.44 1018.45 2829.5 1019.99 2831.03 1022.05 2836.68 1026.17 2843.86 1027.71 2850.53 1025.65 2853.1 1024.63 2855.66 1024.11 2858.23 1023.6 2861.82 1023.6 2865.41 1026.68 2867.46 1029.77 2869.51 1032.86 2870.54 1036.98 2872.08 1040.58 2874.13 1044.18 2876.7 1047.27 2880.8 1048.3 2882.34 1048.3 2884.39 1048.81 2885.93 1049.33 2886.96 1050.36 2887.98 1051.39 2888.5 1052.42 2891.57 1059.62 2894.14 1067.85 2900.81 1070.94 2903.37 1072.49 2905.94 1073 2909.02 1073 2911.58 1073 2914.66 1072.49 2917.23 1071.46 2919.79 1069.91 2921.84 1067.85 2922.87 1065.28 2927.49 1058.08 2928 1049.33 2926.97 1041.09 2925.44 1030.8 2921.84 1021.02 2916.2 1012.27 2903.89 994.778 2882.85 985 2860.79 987.058 2857.2 987.058 2853.61 988.088 2850.02 989.117 2837.19 992.204 2824.37 998.895 2816.16 1009.7 2814.1 1012.79 2812.05 1015.36 2810 1017.94 2813.59 1017.42 2817.18 1016.91 2820.77 1016.91" fill="#3F3D56" fill-rule="evenodd"/><path d="M2768.32 1132C2768.32 1132 2756 1156 2760.82 1156 2760.82 1156 2761.36 1155.5 2762.43 1155.5 2771 1150.5 2768.32 1132 2768.32 1132" fill="#4E517B" fill-rule="evenodd"/><path d="M2962.41 1258C2956.8 1258 2942 1279 2942 1279 2942 1279 2967 1267.28 2964.45 1259.47 2963.94 1258.49 2963.43 1258 2962.41 1258" fill="#4E517B" fill-rule="evenodd"/><path d="M2962.91 1273C2957.29 1273 2944 1289 2944 1289 2944 1289 2967 1284 2964.96 1275 2964.44 1273.5 2963.93 1273 2962.91 1273" fill="#4E517B" fill-rule="evenodd"/><path d="M2771 1253C2771 1253 2771.51 1254.56 2772.54 1257.15 2779.2 1257.67 2779.2 1257.67 2779.2 1257.67 2784.84 1262.85 2792.53 1265.44 2800.22 1265.44 2807.4 1265.44 2814.57 1263.37 2820.73 1258.19 2822.78 1258.19 2822.78 1258.19 2822.78 1258.19 2828.42 1263.89 2836.1 1267 2843.79 1267 2844.31 1267 2844.31 1267 2844.82 1267 2844.82 1267 2845.33 1267 2845.33 1267 2853.02 1267 2860.2 1264.41 2865.84 1259.22 2867.38 1259.22 2867.38 1259.22 2867.38 1259.22 2873.01 1263.37 2879.68 1265.44 2886.34 1265.44 2886.34 1265.44 2886.86 1265.44 2886.86 1265.44 2886.86 1265.44 2887.37 1265.44 2887.37 1265.44 2893.52 1265.44 2900.18 1263.37 2905.31 1259.74 2912.49 1260.26 2912.49 1260.26 2912.49 1260.26 2912.49 1258.7 2912.49 1257.15 2913 1256.11 2913 1256.11 2913 1256.11 2913 1256.11 2905.31 1255.59 2905.31 1255.59 2905.31 1255.59 2900.18 1259.22 2893.52 1261.3 2887.37 1261.3 2887.37 1261.3 2886.86 1261.3 2886.86 1261.3 2886.86 1261.3 2886.34 1261.3 2886.34 1261.3 2879.68 1261.3 2873.01 1259.22 2867.38 1255.07 2865.84 1255.07 2865.84 1255.07 2865.84 1255.07 2860.2 1260.26 2853.02 1262.85 2845.33 1262.85 2845.33 1262.85 2844.82 1262.85 2844.82 1262.85 2844.31 1262.85 2844.31 1262.85 2843.79 1262.85 2836.1 1262.85 2828.42 1259.74 2822.78 1254.04 2820.73 1254.04 2820.73 1254.04 2820.73 1254.04 2814.57 1259.22 2807.4 1261.3 2800.22 1261.3 2792.53 1261.3 2784.84 1258.7 2779.2 1253.52 2771 1253 2771 1253 2771 1253" fill="#4E517B" fill-rule="evenodd"/><path d="M2913 1284C2912 1288 2913 1292 2913 1296 2913 1296 2913 1296 2913 1296 2913 1292 2913 1288 2913 1284" fill="#4E517B" fill-rule="evenodd"/><path d="M2777 1284C2776.5 1287.16 2776 1290.84 2775 1294 2776 1294 2776 1294 2776 1294 2776.5 1290.84 2777 1287.16 2777 1284" fill="#E5AD06" fill-rule="evenodd"/><path d="M2777 1284C2777 1284 2777 1284.5 2777 1284.5 2777 1287.5 2776.5 1291 2776 1294 2776.5 1294 2776.5 1294 2776.5 1294 2777 1291 2777 1287.5 2777 1284" fill="#4E517B" fill-rule="evenodd"/><path d="M2771 1257C2771 1257 2776.45 1271.02 2777 1284 2777 1273.1 2773.18 1261.67 2771.55 1257 2771 1257 2771 1257 2771 1257" fill="#E5AD06" fill-rule="evenodd"/><path d="M2772 1257C2773.64 1261.67 2777.45 1273.1 2777.45 1284 2777.45 1284 2777.45 1284 2777.45 1284 2778 1274.13 2774.73 1263.23 2773.09 1257 2772 1257 2772 1257 2772 1257" fill="#4E517B" fill-rule="evenodd"/><path d="M2912.67 1260C2912 1267.32 2912 1274.64 2912 1281.95 2912 1282.48 2912 1283 2912 1283 2912 1275.68 2912.33 1267.84 2913 1260 2913 1260 2913 1260 2913 1260 2912.67 1260 2912.67 1260 2912.67 1260" fill="#E5AD06" fill-rule="evenodd"/><path d="M2776.54 1293.85C2776.03 1294.87 2775.51 1296.41 2775 1297.95 2912.49 1300 2912.49 1300 2912.49 1300 2911.97 1298.97 2911.97 1297.44 2911.97 1295.9 2776.54 1293.85 2776.54 1293.85 2776.54 1293.85M2913 1260C2911.97 1267.18 2911.46 1274.36 2911.97 1281.54 2911.97 1274.36 2911.97 1267.18 2913 1260 2913 1260 2913 1260 2913 1260" fill="#4E517B" fill-rule="evenodd"/><path d="M2913 1282C2912 1283 2912 1283.5 2913 1284 2913 1284 2913 1283.5 2913 1283 2913 1283 2913 1282.5 2913 1282" fill="#CE9B05" fill-rule="evenodd"/><path d="M2773 1257C2774.54 1263.16 2777.62 1273.93 2777.1 1283.68 2777.1 1287.28 2777.1 1290.87 2776.59 1293.95 2911.97 1296 2911.97 1296 2911.97 1296 2911.97 1291.89 2911.46 1287.79 2911.97 1283.68 2911.46 1283.17 2911.46 1282.66 2911.97 1281.63 2911.46 1274.45 2911.97 1267.26 2913 1260.08 2905.82 1259.57 2905.82 1259.57 2905.82 1259.57 2900.69 1263.16 2894.03 1265.21 2887.87 1265.21 2887.87 1265.21 2887.36 1265.21 2887.36 1265.21 2887.36 1265.21 2886.85 1265.21 2886.85 1265.21 2880.18 1265.21 2873.51 1263.16 2867.87 1259.05 2866.33 1259.05 2866.33 1259.05 2866.33 1259.05 2860.69 1264.18 2853.51 1266.75 2845.82 1266.75 2845.82 1266.75 2845.31 1266.75 2845.31 1266.75 2844.79 1266.75 2844.79 1266.75 2844.28 1266.75 2836.59 1266.75 2828.9 1263.67 2823.26 1258.03 2821.21 1258.03 2821.21 1258.03 2821.21 1258.03 2815.05 1263.16 2807.87 1265.21 2800.69 1265.21 2793 1265.21 2785.31 1262.64 2779.67 1257.51 2773 1257 2773 1257 2773 1257" fill="#46496E" fill-rule="evenodd"/><path d="M2886.86 1263.19C2879.68 1263.19 2873.01 1261.14 2867.38 1257.05 2865.84 1257.05 2865.84 1257.05 2865.84 1257.05 2860.2 1262.17 2852.51 1265.24 2844.82 1264.73 2836.62 1265.24 2828.42 1262.17 2822.78 1256.02 2820.73 1256.02 2820.73 1256.02 2820.73 1256.02 2808.42 1266.26 2790.99 1265.75 2779.2 1255.51 2771 1255 2771 1255 2771 1255 2771 1255 2780.23 1280.08 2774.59 1295.95 2911.97 1298 2911.97 1298 2911.97 1298 2910.95 1284.69 2910.95 1271.38 2913 1258.07 2913 1258.07 2913 1258.07 2913 1258.07 2905.31 1257.56 2905.31 1257.56 2905.31 1257.56 2899.67 1261.65 2893.52 1263.19 2886.86 1263.19Z" fill="#3F3D56" fill-rule="evenodd"/><path d="M2881 1127C2881 1127 2900.84 1133 2907.46 1133 2908.98 1133 2910 1132.54 2910 1132.08 2909.49 1128.38 2881 1127 2881 1127" fill="#4E517B" fill-rule="evenodd"/><path d="M2811 1109C2811 1109 2782 1111 2782 1115 2782 1115.5 2782.52 1116 2784.07 1116 2790.8 1116 2811 1109 2811 1109" fill="#4E517B" fill-rule="evenodd"/><path d="M2919.42 1220.6C2918.91 1222.13 2917.9 1223.66 2916.89 1225.19 2910.3 1233.87 2901.19 1238.47 2893.6 1238.47 2891.06 1238.47 2888.53 1237.96 2886 1236.43 2886.51 1236.94 2886.51 1236.94 2887.01 1236.94 2889.04 1238.98 2892.08 1240 2895.11 1240 2902.71 1240 2911.82 1234.89 2918.41 1226.21 2918.91 1225.7 2919.42 1224.68 2919.92 1224.17 2919.92 1223.15 2919.92 1221.62 2919.42 1220.6M2919.92 1192C2922.96 1194.55 2924.48 1199.15 2924.48 1203.74 2926 1202.72 2926 1202.72 2926 1202.72 2925.49 1198.13 2923.47 1195.06 2920.43 1192.51 2920.43 1192.51 2919.92 1192 2919.92 1192" fill="#4E517B" fill-rule="evenodd"/><path d="M2926.93 1203C2925.33 1204.05 2925.33 1204.05 2925.33 1204.05 2925.33 1209.29 2923.73 1215.57 2920 1221.33 2920.53 1222.38 2920.53 1223.95 2920.53 1225 2925.87 1217.67 2928 1209.29 2926.93 1203" fill="#4E517B" fill-rule="evenodd"/><path d="M2762.22 1223.64C2762.22 1224.66 2761.7 1225.68 2761.7 1226.7 2767.45 1236.39 2776.85 1242 2784.69 1242 2786.78 1242 2789.39 1241.49 2790.96 1240.47 2791.48 1239.96 2792 1239.96 2792 1239.96 2790.43 1240.47 2788.34 1240.98 2786.25 1240.98 2777.9 1240.98 2768.49 1234.35 2762.22 1224.15 2762.22 1223.64 2762.22 1223.64 2762.22 1223.64M2764.31 1191C2763.79 1191 2763.79 1191 2763.27 1191.51 2760.66 1193.04 2758.57 1195.59 2757 1198.65 2757.52 1198.65 2758.04 1199.16 2758.04 1199.16 2759.61 1195.59 2761.18 1192.53 2764.31 1191" fill="#4E517B" fill-rule="evenodd"/><path d="M2757.62 1199C2756.54 1201.04 2756 1204.09 2756 1207.15 2757.08 1211.73 2758.15 1216.31 2759.23 1220.89 2759.77 1222.42 2760.31 1223.95 2761.38 1224.96 2761.38 1225.98 2761.92 1226.49 2762.46 1227 2762.46 1225.98 2763 1224.96 2763 1223.95 2758.15 1215.8 2757.08 1206.64 2758.69 1199.51 2758.69 1199.51 2758.15 1199 2757.62 1199" fill="#4E517B" fill-rule="evenodd"/><path d="M2766.5 1108C2763 1113.5 2763 1113.5 2763 1113.5 2769.5 1117 2769.5 1117 2769.5 1117 2772 1113 2772 1113 2772 1113 2770.5 1111 2768.5 1109 2766.5 1108" fill="#4E517B" fill-rule="evenodd"/><path d="M2729.34 1264.96C2729.34 1264.96 2735.02 1236.87 2727.27 1227.67 2719 1218.99 2721.58 1172 2733.99 1173.02 2746.39 1174.04 2765 1211.33 2761.9 1218.99 2758.8 1226.65 2746.91 1267 2746.91 1267L2729.34 1264.96Z" fill="#FBBEBE" fill-rule="evenodd"/><path d="M2819 1016C2816.5 1016 2814.5 1017 2812 1017 2812 1017 2812 1017 2812 1017 2814.5 1017 2816.5 1016 2819 1016 2819 1016 2819 1016 2819 1016" fill="#333145" fill-rule="evenodd"/><path d="M2854 1023.37C2852.97 1023.89 2851.94 1024.42 2850.4 1024.95 2848.34 1025.47 2846.28 1026 2844.22 1026 2842.16 1026 2839.59 1025.47 2837.53 1024.95 2839.59 1025.47 2842.16 1026 2844.22 1026 2846.28 1026 2848.34 1025.47 2850.4 1024.95 2851.94 1024.42 2852.97 1023.89 2854 1023.37M2821.57 1016C2821.06 1016 2821.06 1016 2820.54 1016 2820.03 1016 2819.51 1016 2819 1016 2819 1016 2819 1016 2819 1016 2819.51 1016 2820.03 1016 2820.54 1016 2821.06 1016 2821.06 1016 2821.57 1016 2822.6 1016 2824.15 1016 2825.18 1016.53 2825.18 1016.53 2825.18 1016.53 2825.18 1016.53 2824.15 1016 2822.6 1016 2821.57 1016" fill="#CA9A9A" fill-rule="evenodd"/><path d="M2927 1049C2927 1050.67 2926 1052.33 2926 1054 2926 1052.89 2927 1051.22 2927 1049.56 2927 1049.56 2927 1049 2927 1049" fill="#333145" fill-rule="evenodd"/><path d="M2821.75 1012C2821.24 1012 2821.24 1012 2820.73 1012 2818.69 1012 2816.13 1012.52 2813.58 1012.52 2812.55 1014.09 2811.53 1015.65 2810 1017.21 2810.51 1016.69 2811.02 1016.69 2811.53 1016.69 2811.53 1016.69 2812.04 1016.69 2812.04 1016.69 2814.6 1016.69 2816.64 1016.17 2819.2 1016.17 2819.71 1016.17 2820.22 1016.17 2820.73 1016.17 2821.24 1016.17 2821.24 1016.17 2821.75 1016.17 2822.77 1016.17 2824.31 1016.17 2825.33 1016.69 2825.33 1016.69 2825.33 1016.69 2825.33 1016.69 2825.33 1016.69 2825.33 1016.69 2825.33 1016.69 2827.37 1017.74 2829.42 1019.3 2830.95 1021.38 2832.99 1022.95 2835.55 1023.99 2837.59 1025.03 2839.63 1025.56 2842.19 1026.08 2844.23 1026.08 2846.28 1026.08 2848.32 1025.56 2850.36 1025.03 2851.9 1024.51 2852.92 1023.99 2853.94 1023.47 2855.47 1023.47 2856.49 1022.95 2858.03 1022.95 2861.6 1022.95 2865.18 1025.56 2867.22 1029.21 2869.27 1032.33 2870.29 1036.5 2871.82 1040.15 2873.86 1043.8 2876.42 1046.93 2880.51 1047.97 2882.04 1047.97 2884.08 1048.5 2885.62 1049.02 2886.64 1050.06 2887.66 1051.1 2888.17 1052.15 2891.24 1059.44 2893.79 1067.79 2900.43 1070.91 2902.99 1072.48 2905.54 1073 2908.1 1073 2908.61 1073 2908.61 1073 2908.61 1073 2908.61 1073 2909.12 1073 2909.63 1073 2912.18 1073 2914.23 1072.48 2916.78 1071.44 2919.34 1069.87 2921.38 1067.79 2922.4 1065.18 2924.45 1061.53 2925.98 1057.88 2926.49 1053.71 2926.49 1052.15 2927 1050.58 2927 1049.02 2927 1048.5 2927 1048.5 2927 1047.97 2927 1047.45 2927 1046.41 2926.49 1045.89 2926.49 1051.1 2924.96 1056.32 2922.4 1061.01 2920.87 1063.62 2918.83 1065.7 2916.27 1067.26 2914.23 1068.31 2911.67 1068.83 2909.63 1068.83 2909.12 1068.83 2908.61 1068.83 2908.1 1068.83 2908.1 1068.83 2908.1 1068.83 2908.1 1068.83 2905.54 1068.83 2902.48 1068.31 2900.43 1067.26 2893.28 1063.62 2890.73 1055.27 2887.66 1048.5 2887.15 1046.93 2886.64 1045.89 2885.62 1044.85 2884.08 1044.32 2882.04 1043.8 2880.51 1043.8 2876.42 1042.76 2873.86 1039.11 2871.82 1035.98 2870.29 1032.33 2869.27 1028.16 2867.22 1025.03 2865.18 1021.38 2862.11 1018.78 2858.03 1018.78 2858.03 1018.78 2858.03 1018.78 2858.03 1018.78 2855.47 1018.78 2852.92 1019.82 2850.36 1020.86 2848.32 1021.38 2846.28 1021.91 2844.23 1021.91 2839.63 1021.91 2835.04 1020.34 2830.95 1017.21 2829.42 1015.13 2827.37 1013.56 2825.33 1012.52 2824.31 1012 2822.77 1012 2821.75 1012" fill="#39374D" fill-rule="evenodd"/><path d="M2720 1274.5C2720 1267.6 2728.28 1262 2738.5 1262 2748.72 1262 2757 1267.6 2757 1274.5 2757 1281.4 2748.72 1287 2738.5 1287 2728.28 1287 2720 1281.4 2720 1274.5Z" fill="#575A89" fill-rule="evenodd"/><path d="M1503 1338.5C1503 989.18 1786.4 706 2136 706 2485.6 706 2769 989.18 2769 1338.5 2769 1687.82 2485.6 1971 2136 1971 1786.4 1971 1503 1687.82 1503 1338.5Z" fill="#FFC107" fill-rule="evenodd"/><path d="M2468 1656.46C2468 1756 2311.1 1664.67 2142.92 1664.67 1974.74 1664.67 1804 1752.41 1804 1652.35 1804 1595.4 1858.35 1516.38 1936.29 1458.91 1995.25 1415.3 2067.04 1384 2139.33 1384 2213.68 1384 2286.49 1417.86 2344.94 1464.04 2418.26 1522.02 2468 1600.53 2468 1656.46Z" fill="#444053" fill-rule="evenodd"/><path d="M2345 1464C2255.19 1450.67 2093.54 1434.26 1936 1458.36 1995.02 1415.28 2066.86 1384 2139.22 1384 2213.63 1384 2286.5 1417.85 2345 1464Z" fill="#F6F8FB" fill-rule="evenodd"/><path d="M1804 891C1804 891 1613 1013.09 1614.54 1203.91 1614.54 1234.18 1619.69 1247 1627.93 1247 1671.18 1247 1804 891 1804 891" fill="#F2B707" fill-rule="evenodd"/><path d="M2768.88 547.303C2768.88 547.303 2596 537 2616.07 658.576 2616.07 658.576 2611.95 680.212 2631.5 690 2631.5 690 2632.02 680.727 2649.51 683.818 2655.69 684.848 2661.86 685.364 2668.03 684.848 2676.78 684.333 2685.01 680.727 2691.19 675.061 2691.19 675.061 2740.07 654.97 2759.11 575.636 2759.11 575.636 2773 558.121 2772.49 553.485 2743.16 565.848 2743.16 565.848 2743.16 565.848 2743.16 565.848 2752.93 586.97 2745.22 604.485 2745.22 604.485 2744.19 566.879 2738.53 567.394 2737.5 567.909 2723.6 575.121 2723.6 575.121 2723.6 575.121 2740.58 611.697 2727.72 638.485 2727.72 638.485 2732.35 593.151 2717.94 577.697 2697.36 589.545 2697.36 589.545 2697.36 589.545 2697.36 589.545 2717.43 627.667 2704.05 658.576 2704.05 658.576 2707.14 611.182 2693.25 592.636 2674.21 607.061 2674.21 607.061 2674.21 607.061 2674.21 607.061 2693.25 644.667 2681.93 670.424 2681.93 670.424 2680.38 614.788 2670.61 610.667 2670.61 610.667 2654.14 625.091 2651.57 631.273 2651.57 631.273 2664.43 658.061 2656.72 672.485 2656.72 672.485 2651.57 635.909 2647.45 635.394 2647.45 635.394 2631.5 660.121 2629.44 676.606 2629.44 676.606 2630.47 651.879 2643.34 633.333 2643.34 633.333 2627.9 635.909 2618.64 646.212 2618.64 646.212 2621.21 628.697 2647.45 627.151 2647.45 627.151 2660.83 608.606 2664.43 607.576 2664.43 607.576 2638.19 605.515 2622.24 612.727 2622.24 612.727 2636.65 596.242 2669.58 603.454 2688.1 588.515 2688.1 588.515 2688.1 588.515 2688.1 588.515 2653.11 583.879 2638.71 589.03 2638.71 589.03 2655.69 574.606 2692.73 584.909 2712.8 573.061 2712.8 573.061 2712.8 573.061 2712.8 573.061 2683.47 566.879 2665.98 568.939 2665.98 568.939 2684.5 559.151 2718.97 569.97 2733.38 563.273 2733.38 563.273 2733.38 563.273 2733.38 563.273 2711.77 559.151 2705.08 558.636 2698.91 557.606 2698.39 556.061 2698.39 556.061 2712.28 554 2726.18 555.545 2739.04 560.697 2739.04 560.697 2769.4 549.364 2768.88 547.303Z" fill="#FFC107" fill-rule="evenodd" fill-opacity="0.2"/><path d="M2592.45 493.634C2592.45 493.634 2514 489 2523.29 544.097 2523.29 544.097 2521.23 553.88 2530 558 2530 558 2530.52 553.88 2538.26 555.425 2540.84 555.94 2543.94 555.94 2546.52 555.94 2550.65 555.425 2554.26 553.88 2557.35 551.306 2557.35 551.306 2579.03 542.552 2587.81 506.508 2587.81 506.508 2594 498.784 2594 496.724 2580.58 502.388 2580.58 502.388 2580.58 502.388 2580.58 502.388 2585.23 511.657 2581.61 519.896 2581.61 519.896 2581.1 502.388 2579.03 502.903 2578.52 502.903 2571.81 506.508 2571.81 506.508 2571.81 506.508 2579.55 522.985 2573.87 534.828 2573.87 534.828 2575.94 514.231 2569.23 507.537 2559.94 512.687 2559.94 512.687 2559.94 512.687 2559.94 512.687 2569.23 530.194 2563.03 544.097 2563.03 544.097 2564.58 522.47 2558.39 514.231 2549.61 520.925 2549.61 520.925 2549.61 520.925 2549.61 520.925 2558.39 537.918 2553.23 549.246 2553.23 549.246 2552.19 524.53 2548.06 522.47 2548.06 522.47 2540.32 529.164 2539.29 531.739 2539.29 531.739 2544.97 544.097 2541.35 550.276 2541.35 550.276 2539.29 533.798 2537.23 533.798 2537.23 533.798 2530 544.612 2529.48 552.336 2529.48 545.127 2532.06 538.433 2535.68 532.769 2531.55 533.284 2527.42 535.343 2524.32 538.433 2524.32 538.433 2525.35 530.709 2537.23 529.679 2537.23 529.679 2543.42 521.44 2544.97 520.925 2544.97 520.925 2533.1 519.896 2525.87 522.985 2525.87 522.985 2532.58 515.776 2547.55 518.866 2555.81 512.172 2555.81 512.172 2555.81 512.172 2555.81 512.172 2539.81 510.112 2533.1 512.687 2533.1 512.687 2540.84 505.993 2557.87 510.627 2567.16 505.478 2567.16 505.478 2567.16 505.478 2567.16 505.478 2553.74 502.388 2545.48 503.418 2545.48 503.418 2554.26 498.784 2569.74 503.933 2575.94 500.843 2575.94 500.843 2575.94 500.843 2575.94 500.843 2566.13 498.784 2563.55 498.784 2560.45 498.269 2560.45 497.754 2560.45 497.754 2566.65 496.724 2572.84 497.239 2579.03 499.814 2579.03 499.814 2592.45 494.664 2592.45 493.634Z" fill="#FFC107" fill-rule="evenodd" fill-opacity="0.2"/><path d="M3219 1893C3219 1888.03 3243.62 1884 3274 1884 3304.38 1884 3329 1888.03 3329 1893 3329 1897.97 3304.38 1902 3274 1902 3243.62 1902 3219 1897.97 3219 1893Z" fill="#FFF9E6" fill-rule="evenodd"/><path d="M1111 2048C1111 2043.03 1135.62 2039 1166 2039 1196.38 2039 1221 2043.03 1221 2048 1221 2052.97 1196.38 2057 1166 2057 1135.62 2057 1111 2052.97 1111 2048Z" fill="#FFF9E6" fill-rule="evenodd"/><path d="M1432 2060C1432 2055.03 1456.62 2051 1487 2051 1517.38 2051 1542 2055.03 1542 2060 1542 2064.97 1517.38 2069 1487 2069 1456.62 2069 1432 2064.97 1432 2060Z" fill="#FFF9E6" fill-rule="evenodd"/><path d="M3070 1993C3070 1985.27 3106.94 1979 3152.5 1979 3198.06 1979 3235 1985.27 3235 1993 3235 2000.73 3198.06 2007 3152.5 2007 3106.94 2007 3070 2000.73 3070 1993Z" fill="#FFC107" fill-rule="evenodd"/><path d="M3187.25 1970.26C3190.85 1967.2 3193.94 1963.12 3194.97 1958.53 3196 1953.43 3193.94 1947.82 3189.82 1946.29 3184.67 1944.25 3179.01 1947.82 3174.89 1951.39 3170.77 1954.96 3166.14 1959.04 3160.99 1958.02 3166.66 1952.92 3169.23 1945.78 3167.69 1938.14 3167.17 1936.61 3166.66 1935.08 3165.63 1934.06 3163.05 1931 3157.91 1932.53 3154.3 1934.57 3143.49 1942.22 3140.92 1956.49 3140.92 1969.75 3139.37 1964.65 3140.4 1960.06 3140.4 1955.47 3140.4 1950.37 3139.37 1945.27 3135.25 1942.73 3132.68 1941.2 3129.59 1940.69 3127.02 1940.69 3121.87 1940.69 3116.72 1941.2 3113.12 1944.25 3109 1948.84 3110.54 1955.98 3114.15 1960.57 3117.24 1965.67 3122.9 1968.73 3128.05 1971.78 3131.65 1974.33 3135.25 1977.39 3137.83 1980.96 3138.34 1981.98 3138.34 1982.49 3138.34 1983 3168.72 1983 3168.72 1983 3168.72 1983 3175.41 1979.43 3181.59 1975.35 3187.25 1970.26Z" fill="#FFC107" fill-rule="evenodd"/><path d="M1191.99 1798C1191.99 1798 1203.3 1812.91 1186.84 1835.01 1170.38 1857.62 1157 1876.12 1162.15 1890 1162.15 1890 1187.36 1848.88 1207.42 1848.37 1228 1847.85 1214.62 1823.18 1191.99 1798" fill="#FFC107" fill-rule="evenodd"/><path d="M1194.09 1802.62C1194.09 1802.62 1194.09 1802.62 1194.09 1802.62 1194.09 1802.62 1194.09 1802.62 1194.09 1802.62 1194.09 1802.62 1194.09 1802.62 1194.09 1802.62M1192.54 1799.03C1214.14 1823.68 1227 1847.81 1206.94 1848.32 1195.11 1848.32 1182.26 1862.19 1173 1874 1173 1874 1173 1874 1173 1874 1182.26 1862.19 1195.63 1848.84 1206.94 1848.32 1227 1847.81 1214.14 1823.68 1192.54 1799.03M1192.03 1798.51C1192.03 1799.03 1192.03 1799.03 1192.03 1799.03 1192.03 1799.03 1192.03 1799.03 1192.03 1798.51M1191.51 1798C1192.03 1798.51 1192.54 1799.03 1192.54 1799.54 1192.03 1798.51 1191.51 1798 1191.51 1798M1191.51 1798C1191.51 1798 1191.51 1798 1191.51 1798 1192.03 1798.51 1192.03 1798.51 1192.03 1798.51 1192.03 1798.51 1192.03 1798.51 1191.51 1798" fill="#E5E5E5" fill-rule="evenodd"/><path d="M1192.18 1798C1192.18 1798 1192.18 1798 1192.18 1798 1192.18 1798 1192.69 1798.52 1193.19 1799.55 1193.7 1800.58 1194.2 1801.62 1194.71 1802.65 1194.71 1802.65 1194.71 1802.65 1194.71 1802.65 1213.88 1826.42 1224.48 1848.13 1205.81 1848.64 1194.2 1849.16 1181.08 1863.11 1172 1875 1172.5 1875 1173.51 1874.48 1174.02 1874.48 1183.1 1862.6 1195.72 1848.64 1207.32 1848.64 1227 1848.13 1214.39 1823.84 1193.19 1799.03 1193.19 1799.03 1193.19 1799.03 1192.69 1799.03 1192.69 1799.03 1192.69 1799.03 1192.69 1798.52 1192.69 1798.52 1192.69 1798.52 1192.69 1798.52 1192.69 1798.52 1192.69 1798.52 1192.18 1798" fill="#E5AD06" fill-rule="evenodd"/><path d="M1213 1817C1213 1822 1212.6 1826 1212.2 1826 1211.4 1826 1211 1822 1211 1817 1211 1812 1211.8 1814.5 1212.2 1814.5 1212.6 1814.5 1213 1812 1213 1817Z" fill="#FFD037" fill-rule="evenodd"/><path d="M1220.33 1823.76C1215.67 1826.41 1211.52 1828 1211.52 1827.47 1211 1826.41 1214.63 1823.76 1219.3 1821.65 1223.96 1819 1221.89 1820.59 1222.41 1821.65 1222.41 1822.18 1225 1821.12 1220.33 1823.76Z" fill="#FFD037" fill-rule="evenodd"/><path d="M1132.5 1798C1132.5 1798 1121.18 1812.91 1137.64 1835.01 1154.11 1857.62 1168 1876.12 1162.34 1890 1162.34 1890 1137.64 1848.88 1117.07 1848.37 1097 1847.85 1110.38 1823.18 1132.5 1798" fill="#FFC107" fill-rule="evenodd"/><path d="M1115.5 1819.14C1104.6 1835.63 1102 1848.01 1116.54 1848.52 1131.08 1849.04 1147.17 1868.63 1156 1881 1156 1881 1156 1881 1156 1881 1147.17 1868.63 1131.08 1849.04 1116.54 1848.52 1102 1848.01 1104.6 1835.63 1115.5 1819.14M1130.04 1802.64C1130.04 1802.64 1130.04 1802.64 1130.04 1802.64 1130.04 1802.64 1130.04 1802.64 1130.04 1802.64 1130.04 1802.64 1130.04 1802.64 1130.04 1802.64M1131.6 1798.52C1131.6 1798.52 1131.6 1798.52 1131.6 1798.52 1131.6 1798.52 1131.6 1798.52 1131.6 1798.52M1132.12 1798.52C1132.12 1798.52 1132.12 1798.52 1132.12 1798.52 1132.12 1798.52 1132.12 1798.52 1132.12 1798.52M1132.12 1798C1132.12 1798 1132.12 1798.52 1131.6 1799.03 1131.6 1799.03 1132.12 1798.52 1132.12 1798" fill="#E5E5E5" fill-rule="evenodd"/><path d="M1132.35 1798C1132.35 1798 1132.35 1798.52 1132.35 1798.52 1132.35 1798.52 1132.35 1798.52 1132.35 1798.52 1132.35 1798.52 1132.35 1798.52 1132.35 1798.52 1132.35 1798.52 1131.84 1798.52 1131.84 1798.52 1131.84 1798.52 1131.84 1798.52 1131.84 1798.52 1125.68 1805.73 1120.03 1812.95 1115.92 1819.14 1105.14 1835.63 1102.57 1848.01 1116.95 1848.52 1131.32 1849.04 1147.24 1868.63 1155.97 1881 1155.97 1881 1155.97 1881 1155.97 1881 1156.49 1880.48 1157 1880.48 1157 1879.97 1148.27 1868.11 1132.35 1849.04 1119 1848.52 1100 1848.01 1110.27 1826.35 1130.3 1802.64 1130.3 1802.64 1130.3 1802.64 1130.3 1802.64 1130.81 1801.61 1131.32 1800.06 1131.84 1799.03 1132.35 1798.52 1132.35 1798 1132.35 1798 1132.35 1798 1132.35 1798 1132.35 1798" fill="#E5AD06" fill-rule="evenodd"/><path d="M1111 1817C1111 1822 1112.2 1826 1112.8 1826 1113.4 1826 1114 1822 1114 1817 1114 1812 1113.4 1814.5 1112.8 1814.5 1111.6 1814.5 1111 1812 1111 1817Z" fill="#FFD037" fill-rule="evenodd"/><path d="M1104 1823.76C1108.5 1826.41 1112.5 1828 1113 1827.47 1113 1826.41 1110 1823.76 1105.5 1821.65 1101 1819 1102.5 1820.59 1102.5 1821.65 1102 1822.18 1100 1821.12 1104 1823.76Z" fill="#FFD037" fill-rule="evenodd"/><path d="M1115 1888.52C1115 1888.52 1146.91 1887.5 1156.18 1880.84 1165.96 1874.19 1205.07 1866 1207.65 1876.75 1209.71 1887.5 1255 1930.49 1219.49 1930.49 1183.46 1931 1136.1 1925.37 1126.84 1919.23 1117.06 1913.6 1115 1888.52 1115 1888.52" fill="#A8A8A8" fill-rule="evenodd"/><path d="M1117.56 1901.47C1119.09 1908.72 1122.15 1916.49 1126.75 1919.6 1135.95 1924.78 1180.92 1931 1215.67 1931 1216.69 1931 1217.71 1931 1218.22 1931 1225.38 1931 1228.96 1928.93 1231 1926.34 1228.96 1928.93 1225.38 1930.48 1218.74 1930.48 1217.71 1930.48 1216.69 1931 1216.18 1931 1180.92 1931 1135.95 1924.78 1126.75 1919.08 1122.15 1916.49 1119.09 1908.72 1117.56 1901.47M1116.02 1888C1115 1888 1115 1888 1115 1888 1115 1888 1115 1888 1115 1888 1115.51 1888 1115.51 1888 1116.02 1888 1116.02 1888 1116.02 1888 1116.02 1888" fill="#CCCCCC" fill-rule="evenodd"/><path d="M1116.02 1888C1115.51 1888 1115.51 1888 1115 1888 1115.51 1888.52 1116.02 1894.73 1117.55 1901.47 1119.09 1908.72 1122.15 1916.49 1126.75 1919.08 1135.95 1924.78 1180.91 1931 1216.16 1931 1216.67 1931 1217.69 1930.48 1218.72 1930.48 1225.36 1930.48 1228.93 1928.93 1230.98 1926.34 1231.49 1924.78 1232 1923.23 1232 1921.67 1230.47 1924.78 1226.89 1926.86 1219.23 1926.86 1218.21 1926.86 1217.18 1926.86 1216.67 1926.86 1181.42 1926.86 1136.46 1921.16 1127.26 1915.46 1120.11 1911.31 1117.04 1895.25 1116.02 1888" fill="#868686" fill-rule="evenodd"/><path d="M1910.74 1255.23C1923.1 1254.2 1979.71 1250.1 2015.74 1229.6 2021.91 1226.01 2028.09 1224.48 2035.3 1223.96 2046.62 1223.45 2060 1228.58 2051.25 1255.23 2037.35 1298.8 1958.09 1348 1908.68 1345.44 1860.82 1342.87 1804.72 1323.91 1767.66 1256.77 1764.06 1250.1 1762 1242.93 1762.51 1235.75 1763.03 1221.91 1767.66 1205 1793.4 1223.96 1827.88 1249.59 1893.24 1254.2 1906.11 1255.23 1907.65 1255.23 1909.2 1255.23 1910.74 1255.23Z" fill="#444053" fill-rule="evenodd"/><path d="M2366.74 1255.23C2379.09 1254.2 2435.71 1250.1 2471.74 1229.6 2477.91 1226.01 2484.09 1224.48 2491.3 1223.96 2502.62 1223.45 2516 1228.58 2507.25 1255.23 2493.35 1298.8 2414.09 1348 2364.68 1345.44 2316.82 1342.87 2260.72 1323.91 2223.66 1256.77 2220.06 1250.1 2218 1242.93 2218.51 1235.75 2219.03 1221.91 2223.66 1205 2249.4 1223.96 2283.88 1249.59 2349.24 1254.2 2362.11 1255.23 2363.65 1255.23 2365.2 1255.23 2366.74 1255.23Z" fill="#444053" fill-rule="evenodd"/></g></svg>