<svg width="70" height="36" viewBox="0 0 70 36" fill="none" xmlns="http://www.w3.org/2000/svg">
<path fill-rule="evenodd" clip-rule="evenodd" d="M7.06055 22.0645C4.87764 24.9599 4.05999 29.0036 4.38748 33.8119C7.49757 36.4893 9.84315 36.3798 11.589 34.2489C11.6986 24.9057 10.3886 20.2622 7.06055 22.0645Z" fill="#FFB608"/>
<path fill-rule="evenodd" clip-rule="evenodd" d="M6.40239 35.2259L6.24081 25.7135L5.27026 34.5157C5.64764 34.7889 6.02501 35.008 6.40239 35.2259Z" fill="#E4A91D"/>
<path fill-rule="evenodd" clip-rule="evenodd" d="M7.76336 29.9666L7.27754 34.0114L7.33176 28.6555L6.84595 35.3778C7.17019 35.5415 7.54756 35.651 7.8718 35.7606H7.92602L7.76444 29.9677L7.76336 29.9666Z" fill="#E4A91D"/>
<path fill-rule="evenodd" clip-rule="evenodd" d="M9.6687 26.5333V35.6684C9.89209 35.5589 10.1155 35.5046 10.3389 35.3398L10.6186 30.9089L10.0038 30.6356L9.6687 26.5333Z" fill="#E4A91D"/>
<path fill-rule="evenodd" clip-rule="evenodd" d="M44.439 31.9446L46.1828 16.3964H40.2435L38.6093 32.2179C40.6794 32.2721 42.6953 32.2179 44.439 31.9446Z" fill="#373939"/>
<path fill-rule="evenodd" clip-rule="evenodd" d="M15.4182 10.8138C14.7079 14.7427 13.9965 18.6715 13.2863 22.6003C13.2863 29.148 44.4999 36.5143 50.513 29.2033C50.513 29.2033 50.7862 28.4941 50.8957 27.8391C51.3328 24.8927 52.4258 17.2531 52.7544 16.2706H52.7002C50.7873 16.7076 15.4182 10.8138 15.4182 10.8138Z" fill="#3D3D3E"/>
<path fill-rule="evenodd" clip-rule="evenodd" d="M0 4.47428L0.316648 3.2695L33.5711 1.21021L69.2027 13.3773L68.886 14.645L35.8213 19.7146L0 4.47428Z" fill="#4B4B4D"/>
<path fill-rule="evenodd" clip-rule="evenodd" d="M69.2027 13.3816L36.0479 18.5174L0.325317 3.26733L33.7967 0.0650635L69.2027 13.3816Z" fill="#3D3D3E"/>
<path fill-rule="evenodd" clip-rule="evenodd" d="M69.2786 13.4998L36.0902 18.5824H36.036L0.275412 3.33348C0.275412 3.33348 0.221191 3.27925 0.221191 3.22395C0.275412 3.22395 0.275412 3.16973 0.330717 3.16973L33.7381 0H33.7923L69.2775 13.3361C69.2775 13.3361 69.3317 13.3903 69.3317 13.4456C69.2956 13.4456 69.2775 13.4637 69.2775 13.4998M36.0891 18.4187L68.95 13.3903L33.7381 0.109525L0.603988 3.33348L36.0891 18.4176V18.4187Z" fill="#221F20"/>
<path fill-rule="evenodd" clip-rule="evenodd" d="M31.7591 8.74793C32.0324 8.80215 32.1419 9.12639 32.0866 9.34218C31.9771 9.6122 31.7038 9.77486 31.4306 9.66642C28.5341 8.69262 24.1628 8.63949 20.1733 9.28796C18.1509 9.6122 16.3475 10.0991 14.7632 10.7476L13.5063 10.2607C15.2555 9.39532 17.5501 8.69262 20.0096 8.31416C24.1075 7.61146 28.6978 7.71991 31.758 8.74684L31.7591 8.74793Z" fill="#2F2D2E"/>
<path fill-rule="evenodd" clip-rule="evenodd" d="M31.3817 8.09398C31.6007 8.20351 31.7645 8.4757 31.6549 8.69366C31.6007 8.96585 31.3274 9.1296 31.0531 9.02115C28.1556 8.03976 23.7279 7.98554 19.7373 8.63944C13.6147 9.62083 9.46033 12.1291 8.80426 18.6182C8.75004 19.2179 8.69474 19.7091 8.58521 20.0355C8.47569 20.3077 8.14819 20.4172 7.92914 20.3077C7.65587 20.1982 7.54635 19.926 7.65587 19.6538C7.71009 19.4358 7.7654 19.0541 7.81962 18.5629C8.58521 11.2019 12.7396 8.74788 19.5724 7.65697C23.7268 6.94776 28.3193 7.05729 31.3806 8.0929L31.3817 8.09398Z" fill="#FF9A12"/>
<path fill-rule="evenodd" clip-rule="evenodd" d="M8.42157 18.4155C9.68491 18.5239 10.6186 19.5042 10.5633 20.7014C10.508 21.8986 9.40947 22.8247 8.14613 22.7152C6.8828 22.6609 5.89381 21.6264 6.00442 20.4292C6.05973 19.2863 7.15824 18.3613 8.42157 18.4155Z" fill="#E4A91D"/>
<path fill-rule="evenodd" clip-rule="evenodd" d="M34.6014 6.89132C37.281 7.05507 39.4683 7.98007 39.4683 8.95929C39.4683 9.93851 37.281 10.5924 34.6014 10.4287C31.9219 10.2649 29.7346 9.33992 29.7346 8.3607C29.7346 7.38148 31.9219 6.72758 34.6014 6.89132Z" fill="#221F20"/>
</svg>
