<?xml version="1.0" encoding="iso-8859-1"?>
<!-- Uploaded to: SVG Repo, www.svgrepo.com, Generator: SVG Repo Mixer Tools -->
<svg height="800px" width="800px" version="1.1" id="Layer_1" xmlns="http://www.w3.org/2000/svg" xmlns:xlink="http://www.w3.org/1999/xlink" 
	 viewBox="0 0 392.533 392.533" xml:space="preserve">
<path style="fill:#FFFFFF;" d="M275.2,143.608c0-35.297-28.768-64.065-64.065-64.065c-21.657,0-41.632,10.796-53.527,28.962l0,0
	c-4.331,6.594-13.899,6.594-18.23,0l0,0c-11.895-18.101-31.935-28.897-53.527-28.897c-28.121,0-51.911,18.23-60.574,43.442h50.941
	c6.012,0,10.925,4.848,10.925,10.925c0,6.012-4.848,10.925-10.925,10.925H21.915c0.259,8.598,3.168,18.36,8.21,28.768h33.552
	c6.012,0,10.925,4.848,10.925,10.925c0,6.012-4.848,10.925-10.925,10.925H42.537c27.992,42.473,77.576,89.859,105.956,114.23
	C189.414,273.871,275.2,189.572,275.2,143.608z"/>
<path style="fill:#56ACE0;" d="M253.414,143.673c0,26.117-51.135,87.661-105.115,136.921c-30.578-27.539-60.25-59.087-80.162-86.238
	c3.749-1.745,6.335-5.495,6.335-9.891c0-6.012-4.848-10.925-10.925-10.925h-9.18c-6.529-11.313-10.473-21.139-10.796-28.768h32.582
	c6.012,0,10.861-4.848,10.861-10.925c0-6.012-4.848-10.925-10.861-10.925H48.937c7.24-12.929,21.075-21.657,36.848-21.657
	c14.222,0,27.41,7.176,35.297,19.135c12.929,19.717,41.826,19.717,54.691,0c7.887-11.96,21.01-19.135,35.297-19.135
	C234.473,101.394,253.414,120.335,253.414,143.673z"/>
<path style="fill:#FFC10D;" d="M370.683,143.608c0-35.297-28.768-64.065-64.065-64.065c-10.731,0-21.333,2.78-30.707,7.887
	c13.059,15.063,21.01,34.715,21.01,56.178c0,40.598-45.64,95.871-85.398,136.404c13.511,12.994,25.277,23.467,32.323,29.543
	C284.897,273.806,370.683,189.572,370.683,143.608z"/>
<path style="fill:#194F82;" d="M306.618,57.758c-17.002,0-33.616,5.172-47.58,14.61c-13.705-9.18-30.125-14.61-47.838-14.61
	c-24.048,0-46.61,9.956-62.642,27.216c-16.097-17.261-38.659-27.216-62.642-27.216C38.465,57.758,0,96.287,0,143.608
	c0,69.495,127.095,176.743,141.576,188.703l0,0c4.073,3.297,9.956,3.297,13.964-0.065c4.655-3.879,20.816-17.713,40.663-36.848
	c22.562,21.721,40.016,36.267,40.857,36.913l0,0c4.073,3.297,9.956,3.297,13.964-0.065
	c14.481-12.154,141.511-120.954,141.511-188.638C392.469,96.287,354.004,57.758,306.618,57.758z M42.537,195.39h21.01
	c6.012,0,10.925-4.848,10.925-10.925c0-6.012-4.848-10.925-10.925-10.925H29.996c-4.978-10.408-7.952-20.17-8.21-28.768h54.303
	c6.012,0,10.925-4.848,10.925-10.925c0-6.012-4.848-10.925-10.925-10.925H25.212c8.598-25.212,32.453-43.442,60.574-43.442
	c21.657,0,41.632,10.796,53.527,28.962l0,0c4.331,6.594,13.899,6.594,18.23,0l0,0c11.895-18.166,31.935-28.962,53.527-28.962
	c35.297,0,64.065,28.768,64.065,64.065c0,45.899-85.786,130.198-126.836,166.012C120.113,285.248,70.465,237.927,42.537,195.39z
	 M211.588,280.012c39.693-40.469,85.398-95.806,85.398-136.404c0-21.463-7.952-41.115-21.01-56.178
	c9.374-5.107,19.911-7.887,30.707-7.887c35.297,0,64.065,28.768,64.065,64.065c0,45.899-85.721,130.198-126.707,165.883
	C236.929,303.479,225.099,293.071,211.588,280.012z"/>
</svg>